<?xml version="1.0" encoding="UTF-8"?>
<svg id="Ebene_2" data-name="Ebene 2" xmlns="http://www.w3.org/2000/svg" viewBox="0 0 31.57 15.56">
  <defs>
    <style>
      .cls-1, .cls-2 {
        fill: #cb0767;
      }

      .cls-3 {
        fill: #436eee;
      }

      .cls-2 {
        stroke: #436eee;
        stroke-linecap: round;
        stroke-miterlimit: 10;
        stroke-width: .25px;
      }
    </style>
  </defs>
  <g id="Ebene_1-2" data-name="Ebene 1">
    <g>
      <g>
        <path class="cls-3" d="m15.87,10.41c-.05,0-.1-.03-.12-.08l-.63-1.87c-.03-.1-.12-.17-.21-.17h-2.58c-.13,0-.25.09-.29.23l-.6,1.81c-.02.05-.07.09-.12.09h-1.02s-.08-.02-.1-.05-.03-.08-.02-.11L13.3,1.39s.07-.08.12-.08h.35c.05,0,.1.03.12.08l3.12,8.85s0,.08-.02.11-.06.05-.1.05h-1.01Zm-2.28-6.22c-.06,0-.12.04-.14.11l-.88,2.62c-.02.06,0,.12.03.17.02.02.05.06.12.06h1.75c.06,0,.1-.04.12-.06.04-.05.04-.11.02-.17l-.88-2.62c-.02-.07-.08-.11-.14-.11Z"/>
        <path class="cls-3" d="m13.76,1.43l3.12,8.85h-1.01l-.63-1.87c-.05-.15-.18-.25-.33-.25h-2.58c-.18,0-.35.12-.41.31l-.6,1.81h-1.02L13.42,1.43c.17,0,.18,0,.35,0m-1.05,5.85h1.75c.19,0,.33-.21.26-.4l-.88-2.62c-.04-.13-.15-.2-.26-.2s-.22.07-.26.2l-.88,2.62c-.07.2.07.4.26.4m1.05-6.1h-.31c-.11,0-.24.07-.27.17l-3.12,8.85c-.03.08-.02.16.03.23.05.07.12.11.2.11h1.02c.11,0,.2-.07.24-.17l.6-1.81c.03-.08.1-.14.17-.14h2.58s.08.03.09.08l.63,1.87c.03.1.13.17.24.17h1.01c.08,0,.16-.04.2-.11.05-.07.06-.15.03-.23L14,1.35c-.04-.1-.13-.17-.24-.17h0Zm-1.05,5.85s-.01,0-.01-.01c0,0-.02-.03,0-.06l.88-2.62.92,2.62s0,.06,0,.06h-1.77Z"/>
      </g>
      <g>
        <path class="cls-3" d="m30.56,10.42c-.07,0-.12-.06-.12-.12v-3.44l.05-2.68-1.63,6.15c-.01.05-.06.09-.12.09h-.58c-.06,0-.11-.04-.12-.09l-1.62-6.13.05,2.65v3.44c0,.07-.06.12-.12.12h-.76c-.07,0-.12-.06-.12-.12V1.46c0-.07.06-.12.12-.12h.98c.06,0,.11.04.12.09l1.7,6.5h.13l1.7-6.5c.01-.05.06-.09.12-.09h.99c.07,0,.12.06.12.12v8.83c0,.07-.06.12-.12.12h-.76Z"/>
        <path class="cls-3" d="m31.32,1.46v8.83h-.76v-3.44l.07-3.71-1.89,7.15h-.58c-.63-2.38-1.26-4.76-1.89-7.13l.08,3.69v3.44h-.76V1.46h.98l1.7,6.5c.03.11.11.16.19.16s.16-.05.19-.16l1.7-6.5h.99m0-.25h-.99c-.11,0-.21.08-.24.19l-1.64,6.28-1.64-6.28c-.03-.11-.13-.19-.24-.19h-.98c-.14,0-.25.11-.25.25v8.83c0,.14.11.25.25.25h.76c.14,0,.25-.11.25-.25v-3.44l-.03-1.61,1.35,5.12c.03.11.13.19.24.19h.58c.11,0,.21-.08.24-.19l1.36-5.15-.03,1.64v3.44c0,.14.11.25.25.25h.76c.14,0,.25-.11.25-.25V1.46c0-.14-.11-.25-.25-.25h0Z"/>
      </g>
      <g>
        <path class="cls-3" d="m23.52,10.42c-.05,0-.1-.03-.12-.09l-.63-1.87c-.03-.1-.12-.17-.21-.17h-2.58c-.13,0-.25.09-.29.23l-.6,1.81c-.02.05-.07.09-.12.09h-1.02s-.08-.02-.1-.05-.03-.08-.02-.11l3.12-8.85s.07-.08.12-.08h.35c.05,0,.1.03.12.08l3.12,8.85s0,.08-.02.11-.06.05-.1.05h-1.01Zm-2.28-6.22c-.06,0-.12.04-.14.11l-.88,2.62c-.02.06,0,.12.03.17.02.02.05.06.12.06h1.75c.06,0,.1-.04.12-.06.04-.05.04-.11.03-.17l-.88-2.62c-.02-.07-.08-.11-.14-.11Z"/>
        <path class="cls-3" d="m21.41,1.44l3.12,8.85h-1.01l-.63-1.87c-.05-.15-.18-.25-.33-.25h-2.58c-.18,0-.35.12-.41.31l-.6,1.81h-1.02l3.12-8.85c.17,0,.18,0,.35,0m-1.05,5.85h1.75c.19,0,.33-.21.26-.4l-.88-2.62c-.04-.13-.15-.2-.26-.2s-.22.07-.26.2l-.88,2.62c-.07.2.07.4.26.4m1.05-6.1h-.17s-.17,0-.17,0c-.11,0-.2.07-.24.17l-3.12,8.85c-.03.08-.02.16.03.23.05.07.12.11.2.11h1.02c.11,0,.2-.07.24-.17l.6-1.81c.03-.08.1-.14.17-.14h2.58s.08.03.09.08l.63,1.87c.03.1.13.17.24.17h1.01c.08,0,.16-.04.2-.11.05-.07.06-.15.03-.23l-3.12-8.85c-.04-.1-.13-.17-.24-.17h0Zm-1.05,5.85s-.01,0-.01-.01c0,0-.02-.03,0-.06l.88-2.62.92,2.62s0,.06,0,.06h-1.77Z"/>
      </g>
      <g id="Ebene_1-2" data-name="Ebene 1-2">
        <g>
          <path class="cls-3" d="m8.9,15.55c-.17,0-.32,0-.32-.32,0-.85,0-1.6.02-2.26.03-2.13.05-3.32-.4-3.97-.66-.96-2.27-.9-3.82-.84-1.64.06-3.19.12-3.81-.99C.08,6.28.09,4.93.12,2.7c0-.7.03-1.48.02-2.38,0-.35.15-.32.32-.32H.46C.64,0,.79,0,.78.32c0,.89,0,1.68-.02,2.39-.03,2.12-.06,3.4.36,4.15.43.76,1.79.72,3.24.66,1.73-.06,3.51-.13,4.36,1.12.56.82.54,2.08.51,4.34,0,.66-.03,1.41-.02,2.25,0,.28-.1.32-.25.32,0,0-.07,0-.07,0Z"/>
          <g>
            <path class="cls-3" d="m4.5,8.71c-.06,0-.11-.05-.11-.11v-.04c0-.06.05-.11.11-.11s.11.05.11.11v.04c0,.06-.05.11-.11.11Z"/>
            <path class="cls-3" d="m4.5,10.51c-.06,0-.11-.05-.11-.11v-.08c0-.06.05-.11.11-.11s.11.05.11.11v.08c0,.06-.05.11-.11.11Zm0-.9c-.06,0-.11-.05-.11-.11v-.08c0-.06.05-.11.11-.11s.11.05.11.11v.08c0,.06-.05.11-.11.11Z"/>
            <path class="cls-3" d="m4.5,11.37c-.06,0-.11-.05-.11-.11v-.04c0-.06.05-.11.11-.11s.11.05.11.11v.04c0,.06-.05.11-.11.11Z"/>
          </g>
          <g>
            <path class="cls-1" d="m8.91,15.43h0s-8.68,0-8.68,0c-.05,0,3-2.41,4.02-3.24.2-.16.49-.16.7,0l3.97,3.23Z"/>
            <path class="cls-3" d="m.18,15.55l-.02-.02-.03-.05c-.02-.06.71-.68,2.19-1.86.73-.58,1.45-1.16,1.86-1.49.24-.19.58-.19.82,0l4.07,3.27-.03.15H.17s0,0,0,0Zm4.42-3.37c-.1,0-.19.03-.28.1-.41.33-1.13.91-1.86,1.49-.74.59-1.56,1.24-1.93,1.55h8.11l-3.74-3.05c-.09-.07-.18-.11-.28-.11h0Z"/>
          </g>
          <path class="cls-3" d="m.02,12.96c-.04-2.05-.06-2.98.47-3.75.76-1.12,2.11-1.38,3.94-1.44h0c.06,0,.11.05.11.11s-.05.11-.11.11c-1.76.06-3.06.31-3.76,1.35-.48.72-.47,1.63-.43,3.63,0,.71.05,1.51.03,2.49,0,.11-.05.11-.11.11h0c-.06,0-.11.02-.11-.11"/>
          <path class="cls-3" d="m4.81,8.05c-.06,0-.11-.05-.11-.11s.05-.11.11-.11c1.74-.06,3.04-.32,3.73-1.4.51-.79.49-1.8.48-4.05,0-.64,0-1.38,0-2.24,0-.14,0-.13.11-.13h0q.11,0,.11.13c0,.86,0,1.6,0,2.24.03,2.29.04,3.34-.5,4.17-.75,1.15-2.1,1.43-3.9,1.49h-.02Z"/>
          <path class="cls-2" d="m7.66,1.48H.74c-.16,0-.25-.11-.25-.24s.11-.24.25-.24h6.93c.14,0,.25.11.25.24s-.12.24-.25.24h0Z"/>
          <path class="cls-2" d="m6.59,2.74H.7c-.14,0-.21-.11-.21-.24s.09-.24.21-.24h5.9c.12,0,.21.11.21.24s-.1.24-.21.24Z"/>
          <path class="cls-2" d="m5.84,4.07H.71c-.12,0-.22-.11-.22-.24s.12-.24.22-.24h5.11c.11,0,.22.11.22.24s-.11.24-.21.24h0Z"/>
          <path class="cls-2" d="m4.83,5.42H.72c-.11,0-.22-.11-.22-.24s.12-.24.22-.24h4.11c.13,0,.22.11.22.24s-.1.24-.22.24Z"/>
          <path class="cls-2" d="m3.78,6.76H.82c-.11,0-.22-.11-.22-.24s.11-.24.23-.24h2.96c.11,0,.21.11.21.24s-.11.24-.22.24Z"/>
        </g>
      </g>
    </g>
  </g>
</svg>