<?xml version="1.0" encoding="UTF-8" standalone="no"?>
<!-- Created with Inkscape (http://www.inkscape.org/) -->

<svg
   width="29.5mm"
   height="6mm"
   viewBox="0 0 29.5 6"
   version="1.1"
   id="svg1"
   inkscape:version="1.3.2 (091e20e, 2023-11-25)"
   sodipodi:docname="Logo_With_HAAM_Blue_and_Description.svg"
   inkscape:export-filename="png/Logo_With_HAAM_Blue_and_Description_Lrg.png"
   inkscape:export-xdpi="1280"
   inkscape:export-ydpi="1280"
   xmlns:inkscape="http://www.inkscape.org/namespaces/inkscape"
   xmlns:sodipodi="http://sodipodi.sourceforge.net/DTD/sodipodi-0.dtd"
   xmlns="http://www.w3.org/2000/svg"
   xmlns:svg="http://www.w3.org/2000/svg">
  <sodipodi:namedview
     id="namedview1"
     pagecolor="#ffffff"
     bordercolor="#000000"
     borderopacity="0.25"
     inkscape:showpageshadow="2"
     inkscape:pageopacity="0.0"
     inkscape:pagecheckerboard="0"
     inkscape:deskcolor="#d1d1d1"
     inkscape:document-units="mm"
     inkscape:zoom="6.7443949"
     inkscape:cx="45.889958"
     inkscape:cy="2.3723403"
     inkscape:window-width="1920"
     inkscape:window-height="999"
     inkscape:window-x="0"
     inkscape:window-y="25"
     inkscape:window-maximized="1"
     inkscape:current-layer="layer2"
     showgrid="true">
    <inkscape:grid
       id="grid1"
       units="mm"
       originx="0"
       originy="0"
       spacingx="1"
       spacingy="0.99999997"
       empcolor="#0099e5"
       empopacity="0.30196078"
       color="#0099e5"
       opacity="0.14901961"
       empspacing="5"
       dotted="false"
       gridanglex="30"
       gridanglez="30"
       visible="true" />
  </sodipodi:namedview>
  <defs
     id="defs1" />
  <g
     inkscape:label="Layer 1"
     inkscape:groupmode="layer"
     id="layer1">
    <g
       data-name="Ebene 1-2"
       id="g50"
       transform="matrix(0.26458333,0,0,0.26458333,0.76615693,0.78627233)" />
  </g>
  <g
     inkscape:groupmode="layer"
     id="layer2"
     inkscape:label="Layer 2">
    <g
       id="g2">
      <g
         id="g1">
        <path
           style="fill:#436eee;stroke:#436eee;stroke-width:0.132292px;stroke-linecap:round;stroke-linejoin:round"
           inkscape:connector-curvature="0"
           id="path1"
           d="m 1.8509486,3.5314225 v 0.3915834 c 0,0.026458 0.018521,0.052917 0.047625,0.060854 l 0.2751666,0.089958 V 4.2272767 L 0.8349486,3.7563184 v -0.052917 c 0,0 1.3387916,-0.4709585 1.3387916,-0.4709585 v 0.1534584 l -0.2831041,0.09525 c -0.023813,0.00794 -0.037042,0.026458 -0.037042,0.050271 z M 1.7186569,3.8621517 V 3.5975684 c 0,-0.029104 -0.03175,-0.050271 -0.060854,-0.039688 L 1.2609279,3.690172 c -0.039687,0.013229 -0.039687,0.066146 0,0.079375 l 0.396875,0.1322917 c 0.029104,0.010583 0.060854,-0.010583 0.060854,-0.039687 z"
           class="cls-3" />
        <path
           style="fill:#436eee;stroke:#436eee;stroke-width:0.132292px;stroke-linecap:round;stroke-linejoin:round"
           inkscape:connector-curvature="0"
           id="path2"
           d="M 0.8349486,1.5720848 1.8165528,1.315439 c 0.03175,-0.00794 0.03175,-0.047625 0,-0.055562 L 0.8349486,1.0005848 V 0.85241816 H 2.1710944 V 0.96618899 H 1.6498653 L 1.0889486,0.95560566 2.1710944,1.2413557 v 0.087313 c -0.3598333,0.09525 -0.7196666,0.1905 -1.0795,0.28575 L 1.6498653,1.6038348 H 2.1710944 V 1.7176057 H 0.8349486 V 1.569439 Z"
           class="cls-3" />
        <path
           style="fill:#436eee;stroke:#436eee;stroke-width:0.132292px;stroke-linecap:round;stroke-linejoin:round"
           inkscape:connector-curvature="0"
           id="path3"
           d="M 2.1710944,4.4872801 V 4.6063426 H 1.5546153 V 5.0561342 H 2.1710944 V 5.1725509 H 0.8349486 V 5.0561342 H 1.4090944 V 4.6063426 H 0.8349486 V 4.4872801 Z"
           class="cls-3" />
        <path
           style="fill:#436eee;stroke:#436eee;stroke-width:0.132292px;stroke-linecap:round;stroke-linejoin:round"
           inkscape:connector-curvature="0"
           id="path4"
           d="m 1.8509486,2.2765883 v 0.3915833 c 0,0.026458 0.018521,0.052917 0.047625,0.060854 l 0.2751666,0.089958 V 2.9724425 L 0.8349486,2.5014841 v -0.052917 c 0,0 1.3387916,-0.4709584 1.3387916,-0.4709584 v 0.1534584 l -0.2831041,0.09525 c -0.023813,0.00794 -0.037042,0.026458 -0.037042,0.050271 z M 1.7186569,2.6073175 V 2.3427341 c 0,-0.029104 -0.03175,-0.050271 -0.060854,-0.039687 l -0.396875,0.1322917 c -0.039687,0.013229 -0.039687,0.066146 0,0.079375 l 0.396875,0.1322917 c 0.029104,0.010583 0.060854,-0.010583 0.060854,-0.039687 z"
           class="cls-3" />
        <g
           data-name="Ebene 1-2"
           id="g63"
           transform="matrix(0.24177446,0,0,0.24177446,1.0119685,1.0371639)">
          <g
             id="g62"
             transform="matrix(0.91194983,0,0,0.91194983,0.87049533,0.96852862)">
            <g
               id="g53"
               transform="matrix(1.0839262,0,0,1.0839262,6.1398718,0.0201412)"
               style="fill:#436eee;fill-opacity:1">
              <circle
                 style="fill:#436eee;fill-opacity:1;stroke:#436eee;stroke-width:0;stroke-linecap:round;stroke-linejoin:round;stroke-miterlimit:7.5;stroke-dasharray:none;stroke-opacity:1"
                 id="path61"
                 cx="4.3574357"
                 cy="11.775326"
                 r="0.3057923" />
              <circle
                 style="fill:#436eee;fill-opacity:1;stroke:#436eee;stroke-width:0;stroke-linecap:round;stroke-linejoin:round;stroke-miterlimit:7.5;stroke-dasharray:none;stroke-opacity:1"
                 id="circle61"
                 cx="4.3574357"
                 cy="10.674009"
                 r="0.3057923" />
              <circle
                 style="fill:#436eee;fill-opacity:1;stroke:#436eee;stroke-width:0;stroke-linecap:round;stroke-linejoin:round;stroke-miterlimit:7.5;stroke-dasharray:none;stroke-opacity:1"
                 id="circle62"
                 cx="4.3574357"
                 cy="9.5726938"
                 r="0.3057923" />
              <circle
                 style="fill:#436eee;fill-opacity:1;stroke:#436eee;stroke-width:0;stroke-linecap:round;stroke-linejoin:round;stroke-miterlimit:7.5;stroke-dasharray:none;stroke-opacity:1"
                 id="circle67"
                 cx="4.3574357"
                 cy="8.4713774"
                 r="0.3057923" />
            </g>
          </g>
        </g>
        <g
           data-name="Ebene 1-2"
           id="g29"
           style="display:inline"
           transform="matrix(0.26458333,0,0,0.26458333,0.76615693,0.78627233)">
          <g
             id="g27">
            <g
               id="g15"
               transform="matrix(1.0692048,0,0,1.0692048,-0.60316622,-0.13901553)"
               style="fill:#436eee;fill-opacity:1">
              <path
                 style="fill:#436eee;fill-opacity:1;stroke-width:1.00659"
                 inkscape:connector-curvature="0"
                 id="path13"
                 d="m 14.838512,15.868873 -8.4136356,-5.3e-5 c -0.049475,0 2.8135476,-2.467751 3.8228526,-3.317641 0.197905,-0.163833 0.621598,-0.167486 0.829396,-0.0037 z"
                 class="cls-1"
                 sodipodi:nodetypes="csccc" />
            </g>
          </g>
        </g>
        <path
           style="display:inline;fill:#436eee;stroke:#436eee;stroke-width:0.127536;stroke-linecap:round;stroke-miterlimit:10;stroke-dasharray:none;stroke-opacity:1"
           inkscape:connector-curvature="0"
           id="path39"
           d="m 2.4239244,1.632499 c -3.97e-4,0.1029835 -0.01053,0.486089 0.0037,0.7121916 0.01298,0.2055339 0.0327,0.3646286 0.126647,0.4633817 0.242428,0.2548298 0.572849,0.2604601 1.074992,0.2766693 0.04605,0.00148 0.0358,-0.062358 -0.0038,-0.063619 -0.137651,-0.00438 -0.447701,-0.021926 -0.539999,-0.046486 -0.212614,-0.056569 -0.312741,-0.1090065 -0.406659,-0.2292059 -0.06744,-0.086315 -0.116111,-0.2007294 -0.121346,-0.4005572 -0.0066,-0.2515346 -0.0024,-0.6252168 -0.0022,-0.7192468 2.4e-4,-0.1160269 0.0028,-0.5648894 0.0022,-0.6080061 -7.41e-4,-0.048792 0.0086,-0.16715063 -0.02,-0.16762543 -0.02049,-3.387e-4 -0.06825,-7.752e-4 -0.09582,-1.359e-4 -0.02439,5.503e-4 -0.01609,0.11388842 -0.01606,0.16473113 -2.62e-4,0.2059687 -0.0013,0.5149203 -0.0017,0.6179038 z"
           class="cls-2"
           sodipodi:nodetypes="zsssssssssssszz" />
        <path
           style="display:inline;fill:#436eee;stroke:#436eee;stroke-width:0.127536;stroke-linecap:round;stroke-miterlimit:10;stroke-dasharray:none;stroke-opacity:1"
           inkscape:connector-curvature="0"
           id="path58"
           d="m 4.8098554,4.4706415 c 3.97e-4,-0.1029835 0.01053,-0.4860891 -0.0037,-0.7121917 -0.013024,-0.2055339 -0.032747,-0.3646286 -0.126694,-0.4633817 -0.108841,-0.114409 -0.237995,-0.1818508 -0.39282,-0.2160447 -0.301752,-0.066643 -0.412518,-0.049626 -0.680105,-0.058558 -0.04605,-0.00153 -0.03767,0.057402 0.0017,0.061552 0.08081,0.00852 0.4477,0.021926 0.539999,0.046486 0.212614,0.056569 0.312741,0.1090065 0.406659,0.2292059 0.06744,0.086315 0.116111,0.2007293 0.121346,0.4005572 0.0066,0.2515346 0.0024,0.6252167 0.0022,0.719247 -2.4e-4,0.116027 -0.0028,0.564889 -0.0022,0.608006 7.4e-4,0.04879 -0.01484,0.0886 0.0138,0.08908 0.02049,3.44e-4 0.08494,4.76e-4 0.115455,1.34e-4 0.0075,-8.1e-5 0.0027,-0.04981 0.0026,-0.08618 -1.95e-4,-0.205969 0.0013,-0.51492 0.0017,-0.617904 z"
           class="cls-2"
           sodipodi:nodetypes="zssssssssssssszz" />
        <path
           style="display:inline;fill:#436eee;stroke:#436eee;stroke-width:0;stroke-linecap:round;stroke-miterlimit:10;stroke-dasharray:none;stroke-opacity:1"
           inkscape:connector-curvature="0"
           id="path60"
           d="m 4.8737114,1.6217339 c 3.97e-4,0.1005003 0.01053,0.4743682 -0.0037,0.6950188 -0.01298,0.200578 -0.0327,0.3558366 -0.126648,0.4522084 -0.242427,0.2486853 -0.589388,0.2540944 -1.074991,0.269998 -0.04212,0.00138 -0.03712,-0.050174 -0.0057,-0.060383 0.0029,-9.525e-4 0.0061,-0.00146 0.0095,-0.00169 0.07151,-0.00531 0.383622,-0.017261 0.539999,-0.045365 0.2162,-0.038853 0.312741,-0.1063781 0.406659,-0.2236793 0.06744,-0.084234 0.116111,-0.1958893 0.121346,-0.3908985 0.0066,-0.2454696 0.0024,-0.6101414 0.0022,-0.7019042 -2.4e-4,-0.1132292 -0.0028,-0.5512686 -0.0022,-0.5933455 7.41e-4,-0.047616 0.0054,-0.19092701 0.0055,-0.20923351 1.06e-4,-0.012473 0.01695,-0.025705 0.03034,-0.026134 0.01453,-4.656e-4 0.04614,3.61e-5 0.0608,-5.45e-4 0.01416,-5.636e-4 0.03412,0.012573 0.03464,0.025544 6.35e-4,0.015653 5.82e-4,0.1578008 5.55e-4,0.20741731 2.63e-4,0.2010021 0.0013,0.5025041 0.0017,0.6030045 z"
           class="cls-2"
           sodipodi:nodetypes="zssssssssssssssszz" />
        <path
           style="display:inline;fill:#436eee;stroke:#436eee;stroke-width:0;stroke-linecap:round;stroke-miterlimit:10;stroke-dasharray:none;stroke-opacity:1"
           inkscape:connector-curvature="0"
           id="path79"
           d="m 2.3600674,4.4226429 c -3.96e-4,-0.098103 -0.01053,-0.4630539 0.0037,-0.6784417 0.01298,-0.1957938 0.0327,-0.3473492 0.126648,-0.4414223 0.242427,-0.2427539 0.589385,-0.2481173 1.074991,-0.2635581 0.04605,-0.00148 0.208442,0.045825 -0.0038,0.060604 -0.139423,0.00971 -0.31851,0.010552 -0.54,0.044282 -0.216836,0.033023 -0.312741,0.1038407 -0.406659,0.2183442 -0.06744,0.082225 -0.116111,0.191217 -0.121346,0.3815749 -0.0066,0.2396149 -0.0024,0.5955888 -0.0022,0.6851626 2.41e-4,0.110529 0.0028,0.538121 0.0022,0.579194 -7.41e-4,0.04648 -0.0054,0.186373 -0.0055,0.204243 -1.06e-4,0.01218 -0.01695,0.02509 -0.03035,0.02551 -0.01453,4.76e-4 -0.04614,-3.5e-5 -0.0608,5.56e-4 -0.01416,5.29e-4 -0.03412,-0.01227 -0.03464,-0.02494 -6.35e-4,-0.01528 -5.82e-4,-0.154037 -5.56e-4,-0.20247 -2.63e-4,-0.196208 -0.0013,-0.490518 -0.0017,-0.588622 z"
           class="cls-2"
           sodipodi:nodetypes="zsssssssssssssszz" />
        <path
           style="display:inline;fill:#436eee;fill-opacity:1;stroke:#436eee;stroke-width:0.0517234px;stroke-linecap:round;stroke-miterlimit:10;stroke-opacity:1"
           inkscape:connector-curvature="0"
           id="path21"
           d="m 4.3462964,1.01617 c -0.03824,4e-7 -1.825239,0.00207 -1.825239,0.00207 -0.04215,0 -0.06587,0.017873 -0.06587,0.038992 0,0.021122 0.02898,0.038993 0.06587,0.038993 0,0 1.789794,-10e-7 1.825806,0 0.03582,10e-7 0.0753,0.00322 0.075,-0.013134 -2.45e-4,-0.013528 -9e-4,-0.037838 -8.73e-4,-0.053764 3.3e-5,-0.017477 -0.03646,-0.013155 -0.0747,-0.013154 z"
           class="cls-2"
           sodipodi:nodetypes="zsssssszz" />
        <path
           id="path5"
           style="display:inline;fill:#436eee;fill-opacity:1;stroke:#436eee;stroke-width:0.0517234px;stroke-linecap:round;stroke-miterlimit:10;stroke-opacity:1"
           class="cls-2"
           d="m 3.2152824,2.641166 c -0.0088,1.32e-4 -0.01835,5.292e-4 -0.0279,5.292e-4 -0.01408,3e-7 -0.360391,1.632e-4 -0.672311,5.292e-4 v 0.079582 c 0.312282,0 0.659556,-5e-7 0.672828,0 0.03582,1.1e-6 0.07523,0.00292 0.07493,-0.013435 -2.44e-4,-0.013528 -0.0011,-0.037818 -0.001,-0.053744 2.5e-5,-0.013108 -0.02012,-0.013832 -0.04651,-0.013435 z" />
        <path
           id="path7"
           style="display:inline;fill:#436eee;fill-opacity:1;stroke:#436eee;stroke-width:0.0517234px;stroke-linecap:round;stroke-miterlimit:10;stroke-opacity:1"
           class="cls-2"
           d="m 3.4488604,2.3161214 c -0.0088,1.321e-4 -0.01835,5.292e-4 -0.02791,5.292e-4 -0.02075,3e-7 -0.504895,4.762e-4 -0.990637,0.00103 v 0.079065 c 0.486335,0 0.971604,-5e-7 0.991154,0 0.03582,1e-6 0.07523,0.00292 0.07493,-0.013436 -2.45e-4,-0.013528 -5.56e-4,-0.037817 -5.29e-4,-0.053744 2.5e-5,-0.013107 -0.02063,-0.013832 -0.04703,-0.013435 z" />
        <path
           id="path9"
           style="display:inline;fill:#436eee;fill-opacity:1;stroke:#436eee;stroke-width:0.0517234px;stroke-linecap:round;stroke-miterlimit:10;stroke-opacity:1"
           class="cls-2"
           d="m 3.6798534,1.9910766 c -0.0088,1.32e-4 -0.01835,5.291e-4 -0.02791,5.291e-4 -0.0262,3e-7 -0.719737,9.525e-4 -1.25057,0.00156 v 0.078031 c 0.531494,-2e-7 1.226409,-5e-7 1.251087,0 0.03582,1.1e-6 0.07523,0.00343 0.07493,-0.01292 -2.44e-4,-0.013528 -5.55e-4,-0.037817 -5.29e-4,-0.053744 2.5e-5,-0.013107 -0.02063,-0.013832 -0.04702,-0.013435 z" />
        <path
           id="path11"
           style="display:inline;fill:#436eee;fill-opacity:1;stroke:#436eee;stroke-width:0.0517234px;stroke-linecap:round;stroke-miterlimit:10;stroke-opacity:1"
           class="cls-2"
           d="m 3.9123974,1.6660317 c -0.0088,1.32e-4 -0.01835,5.292e-4 -0.02791,5.292e-4 -0.03094,3e-7 -1.029229,0.00103 -1.476913,0.00156 v 0.078031 c 0.448249,-3e-7 1.448287,-8e-7 1.47743,0 0.03582,10e-7 0.07523,0.00343 0.07493,-0.01292 -2.44e-4,-0.013528 -0.0011,-0.037817 -10e-4,-0.053743 2.6e-5,-0.013108 -0.02012,-0.013832 -0.04651,-0.013436 z" />
        <path
           id="path15"
           style="display:inline;fill:#436eee;fill-opacity:1;stroke:#436eee;stroke-width:0.0517234px;stroke-linecap:round;stroke-miterlimit:10;stroke-opacity:1"
           class="cls-2"
           d="m 4.1170364,1.3409871 c -0.03594,5e-7 -1.525987,0.00185 -1.715658,0.00207 v 0.078031 c 0.189913,-1e-7 1.682323,-10e-7 1.716175,0 0.03582,1.1e-6 0.07523,0.00343 0.07493,-0.012919 -2.45e-4,-0.013528 -0.0011,-0.037817 -0.001,-0.053743 3.3e-5,-0.017476 -0.03618,-0.013436 -0.07441,-0.013436 z" />
      </g>
      <path
         id="path10"
         style="display:inline;fill:#436eee;fill-opacity:1;stroke:#436eee;stroke-width:0.0517234px;stroke-linecap:round;stroke-miterlimit:10;stroke-opacity:1"
         class="cls-2"
         d="m 5.773216,0.81162474 c -0.016354,-3e-4 -0.013437,0.0396276 -0.013436,0.0754476 V 1.631213 c 4.64e-5,0.00873 -2e-7,0.017917 0,0.026872 v 1.0547157 0.5994467 0.1715657 1.6541626 c -1e-6,0.03582 -0.00292,0.075231 0.013436,0.074931 0.013528,-2.45e-4 0.037817,-5.437e-4 0.053743,-5.167e-4 0.017477,3.3e-5 0.01292,-0.036691 0.012919,-0.074931 -4e-7,-0.034646 -0.00175,-1.3775809 -0.00207,-1.6536458 -3.31e-5,-0.028642 0,-0.1715657 0,-0.1715657 3.194e-4,-0.276065 0.00207,-1.6190004 0.00207,-1.6536459 6e-7,-0.0239 0.00197,-0.047451 -0.00103,-0.061495 3.824e-4,-0.3356849 0.00103,-0.69465241 0.00103,-0.7095175 1e-6,-0.03824 0.00456,-0.0749638 -0.012919,-0.0749308 -0.015926,2.7e-5 -0.040215,-7.8853e-4 -0.053743,-0.001034 z" />
      <text
         xml:space="preserve"
         style="font-style:normal;font-variant:normal;font-weight:normal;font-stretch:normal;font-size:2.11667px;font-family:'Varela Round';-inkscape-font-specification:'Varela Round, Normal';font-variant-ligatures:normal;font-variant-caps:normal;font-variant-numeric:normal;font-variant-east-asian:normal;fill:#436eee;fill-opacity:1;stroke:none;stroke-width:0.026;stroke-linecap:round;stroke-linejoin:round;stroke-miterlimit:7.5;stroke-dasharray:none"
         x="6.5175223"
         y="2.5145674"
         id="text1"><tspan
           sodipodi:role="line"
           id="tspan1"
           style="font-style:normal;font-variant:normal;font-weight:normal;font-stretch:normal;font-size:2.11667px;font-family:'Varela Round';-inkscape-font-specification:'Varela Round, Normal';font-variant-ligatures:normal;font-variant-caps:normal;font-variant-numeric:normal;font-variant-east-asian:normal;fill:#436eee;fill-opacity:1;stroke:none;stroke-width:0.026;stroke-dasharray:none;stroke-opacity:1"
           x="6.5175223"
           y="2.5145674">Human Ancient DNA,</tspan></text>
      <text
         xml:space="preserve"
         style="font-style:normal;font-variant:normal;font-weight:normal;font-stretch:normal;font-size:2.11667px;font-family:'Varela Round';-inkscape-font-specification:'Varela Round, Normal';font-variant-ligatures:normal;font-variant-caps:normal;font-variant-numeric:normal;font-variant-east-asian:normal;fill:#436eee;fill-opacity:1;stroke:#000000;stroke-width:0.0264583;stroke-linecap:round;stroke-linejoin:round;stroke-miterlimit:7.5"
         x="6.6048861"
         y="4.9127493"
         id="text2"><tspan
           sodipodi:role="line"
           id="tspan2"
           style="font-style:normal;font-variant:normal;font-weight:normal;font-stretch:normal;font-size:2.11667px;font-family:'Varela Round';-inkscape-font-specification:'Varela Round, Normal';font-variant-ligatures:normal;font-variant-caps:normal;font-variant-numeric:normal;font-variant-east-asian:normal;fill:#436eee;fill-opacity:1;stroke:none;stroke-width:0.0264583"
           x="6.6048861"
           y="4.9127493">Ancestry, and Mobility</tspan></text>
    </g>
  </g>
</svg>
