<?xml version="1.0" encoding="UTF-8"?>
<svg id="Ebene_2" data-name="Ebene 2" xmlns="http://www.w3.org/2000/svg" viewBox="0 0 10.95 18.05">
  <defs>
    <style>
      .cls-1 {
        fill: #436eee;
      }

      .cls-2 {
        stroke: #436eee;
        stroke-linecap: round;
      }

      .cls-2, .cls-3 {
        fill: #cb0767;
        stroke-miterlimit: 10;
        stroke-width: .25px;
      }

      .cls-3 {
        stroke: #fff;
      }
    </style>
  </defs>
  <g id="Ebene_1-2" data-name="Ebene 1">
    <g>
      <path class="cls-1" d="m10.54,18.05c-.21,0-.38,0-.38-.37,0-.99.01-1.85.02-2.62.04-2.48.06-3.85-.47-4.6-.78-1.11-2.68-1.04-4.52-.98-1.94.07-3.78.13-4.51-1.15C.09,7.29.11,5.72.15,3.13c.01-.81.03-1.72.03-2.75C.18-.04.35,0,.55,0h0C.76,0,.94-.01.93.37c-.02,1.04-.01,1.95-.03,2.77-.04,2.47-.06,3.95.43,4.82.5.88,2.12.83,3.83.77,2.04-.07,4.15-.15,5.16,1.3.67.95.64,2.41.61,5.04-.01.76-.03,1.63-.02,2.61,0,.33-.17.38-.37.38h0Z"/>
      <g>
        <path class="cls-1" d="m5.33,10.11c-.07,0-.12-.06-.12-.12v-.05c0-.07.06-.12.12-.12s.12.06.12.12v.05c0,.07-.06.12-.12.12Z"/>
        <path class="cls-1" d="m5.33,12.2c-.07,0-.12-.06-.12-.12v-.1c0-.07.06-.12.12-.12s.12.06.12.12v.1c0,.07-.06.12-.12.12Zm0-1.05c-.07,0-.12-.06-.12-.12v-.1c0-.07.06-.12.12-.12s.12.06.12.12v.1c0,.07-.06.12-.12.12Z"/>
        <path class="cls-1" d="m5.33,13.2c-.07,0-.12-.06-.12-.12v-.05c0-.07.06-.12.12-.12s.12.06.12.12v.05c0,.07-.06.12-.12.12Z"/>
      </g>
      <g>
        <path class="cls-3" d="m10.47,17.91s0,.01,0,.01H.19c-.06,0,3.54-2.79,4.76-3.76.24-.19.58-.19.82,0l4.7,3.74Z"/>
        <path class="cls-1" d="m.13,18.05l-.03-.03-.03-.06q-.04-.11,2.59-2.16c.86-.67,1.72-1.35,2.21-1.73.29-.23.69-.23.98,0l4.77,3.8-.03.18h-.12s-10.34,0-10.34,0Zm5.23-3.9c-.12,0-.23.04-.33.12-.48.39-1.35,1.06-2.21,1.74-.88.69-1.84,1.44-2.29,1.8h9.6s-4.43-3.53-4.43-3.53c-.1-.08-.22-.12-.34-.12Z"/>
      </g>
      <path class="cls-1" d="m.02,15.04c-.05-2.37-.07-3.46.55-4.36.89-1.29,2.51-1.6,4.66-1.67h0c.07,0,.12.05.12.12,0,.07-.05.13-.12.13-2.07.07-3.62.36-4.46,1.56-.57.83-.55,1.89-.5,4.21.02.82.06,1.75.03,2.89,0,.12-.06.12-.12.12H.18c-.07,0-.12.02-.12-.13"/>
      <path class="cls-1" d="m5.69,9.35c-.07,0-.12-.05-.12-.12,0-.07.05-.13.12-.13,2.05-.07,3.59-.37,4.42-1.62.6-.91.59-2.1.56-4.7,0-.74-.02-1.6-.02-2.6,0-.15,0-.14.13-.14h0c.13,0,.12,0,.12.14,0,1,0,1.86.02,2.6.03,2.66.05,3.87-.6,4.84-.89,1.34-2.49,1.66-4.62,1.73h0Z"/>
      <path class="cls-2" d="m9.08,1.73H.87c-.18,0-.29-.13-.29-.28s.12-.28.29-.28h8.21c.16,0,.3.13.3.28s-.14.28-.3.28Z"/>
      <path class="cls-2" d="m7.81,3.18H.82c-.16,0-.25-.13-.25-.28s.11-.28.25-.28h6.98c.14,0,.26.13.26.28s-.12.28-.26.28Z"/>
      <path class="cls-2" d="m6.91,4.73H.84c-.14,0-.27-.13-.27-.28s.14-.28.27-.28h6.06c.12,0,.26.13.26.28s-.13.28-.25.28Z"/>
      <path class="cls-2" d="m5.71,6.29H.85c-.13,0-.26-.13-.26-.28s.14-.28.26-.28h4.86c.15,0,.26.13.26.28s-.11.28-.26.28Z"/>
      <path class="cls-2" d="m4.48,7.85H.98c-.13,0-.26-.13-.26-.28s.13-.28.27-.28h3.5c.12,0,.26.13.26.28s-.12.28-.27.28Z"/>
    </g>
  </g>
</svg>