<?xml version="1.0" encoding="UTF-8" standalone="no"?>
<!-- Created with Inkscape (http://www.inkscape.org/) -->

<svg
   width="94.38858mm"
   height="73.017204mm"
   viewBox="0 0 94.388581 73.017205"
   version="1.1"
   id="svg1"
   inkscape:version="1.3.2 (091e20e, 2023-11-25)"
   sodipodi:docname="Logo_HAAM_Summer_School_Blue_v1.0.svg"
   inkscape:export-filename="png/Logo_HAAM_Summer_School_Blue_Lrg.png"
   inkscape:export-xdpi="322.92044"
   inkscape:export-ydpi="322.92044"
   xmlns:inkscape="http://www.inkscape.org/namespaces/inkscape"
   xmlns:sodipodi="http://sodipodi.sourceforge.net/DTD/sodipodi-0.dtd"
   xmlns="http://www.w3.org/2000/svg"
   xmlns:svg="http://www.w3.org/2000/svg">
  <sodipodi:namedview
     id="namedview1"
     pagecolor="#ffffff"
     bordercolor="#666666"
     borderopacity="1.0"
     inkscape:showpageshadow="2"
     inkscape:pageopacity="0.0"
     inkscape:pagecheckerboard="0"
     inkscape:deskcolor="#d1d1d1"
     inkscape:document-units="mm"
     inkscape:zoom="1.6488314"
     inkscape:cx="181.34055"
     inkscape:cy="158.90042"
     inkscape:window-width="1440"
     inkscape:window-height="757"
     inkscape:window-x="0"
     inkscape:window-y="25"
     inkscape:window-maximized="1"
     inkscape:current-layer="g1" />
  <defs
     id="defs1" />
  <g
     inkscape:label="Layer 1"
     inkscape:groupmode="layer"
     id="layer1"
     transform="translate(-10.912143,-11.286412)">
    <g
       id="g2-5"
       transform="matrix(1.0210053,0,0,1.0210053,-298.08298,-131.07483)"
       style="stroke:#436eee;stroke-width:1.55239155;stroke-dasharray:none;stroke-opacity:1">
      <path
         id="rect5-3-2-4"
         style="fill:none;stroke:#436eee;stroke-width:1.55239155;stroke-linecap:round;stroke-miterlimit:7.5;stroke-dasharray:none;stroke-opacity:1"
         d="m 324.03455,167.91674 c -2.86321,0.73451 -4.96736,3.32365 -4.96736,6.42224 0,3.67351 2.95726,6.63077 6.63078,6.63077 h 7.75188 c 3.67352,0 6.63104,-2.95726 6.63104,-6.63077 0,-3.09269 -2.09631,-5.67745 -4.95116,-6.41761 a 7.3128581,7.3128581 0 0 1 -0.31808,0.3515 7.3128581,7.3128581 0 0 1 -10.341,0.13423 7.3128581,7.3128581 0 0 1 -0.4361,-0.49036 z" />
      <circle
         style="fill:none;stroke:#436eee;stroke-width:1.55239155;stroke-linecap:round;stroke-miterlimit:7.5;stroke-dasharray:none;stroke-opacity:1"
         id="circle4-9-7-1"
         cx="-113.1282"
         cy="349.92178"
         r="7.3128581"
         transform="matrix(-0.69785847,0.71623568,0.71623568,0.69785847,0,0)" />
    </g>
    <a
       id="a109"
       inkscape:export-filename="Logo_HAAM_meeting_v1.0.png"
       inkscape:export-xdpi="1200"
       inkscape:export-ydpi="1200"
       style="display:inline"
       transform="matrix(1.4997842,0,0,1.4997842,59.978796,8.7015097)"
       sodipodi:insensitive="true">
      <g
         transform="translate(7.9701534,8.0862518)"
         inkscape:export-ydpi="900"
         inkscape:export-xdpi="900"
         inkscape:export-filename="/home/tina/Desktop/HAAM_community/Logo_With_HAAM_Blue.png"
         data-name="Ebene 1"
         id="g109">
        <path
           style="fill:#436eee;stroke:#436eee;stroke-width:0.5px;stroke-linecap:round;stroke-linejoin:round"
           inkscape:connector-curvature="0"
           id="path97"
           d="m 4.1,10.375371 v 1.48 c 0,0.1 0.07,0.2 0.18,0.23 l 1.04,0.34 v 0.58 l -5.06,-1.78 v -0.2 c 0,0 5.06,-1.7800005 5.06,-1.7800005 v 0.58 L 4.25,10.185371 c -0.09,0.03 -0.14,0.1 -0.14,0.19 z m -0.5,1.25 v -1 c 0,-0.11 -0.12,-0.19 -0.23,-0.15 l -1.5,0.5 c -0.15,0.05 -0.15,0.25 0,0.3 l 1.5,0.5 c 0.11,0.04 0.23,-0.04 0.23,-0.15 z"
           class="cls-3" />
        <path
           style="fill:#436eee;stroke:#436eee;stroke-width:0.5px;stroke-linecap:round;stroke-linejoin:round"
           inkscape:connector-curvature="0"
           id="path98"
           d="M 0.26,2.97 3.97,2 C 4.09,1.97 4.09,1.82 3.97,1.79 L 0.26,0.81 V 0.25 H 5.31 V 0.68 H 3.34 L 1.22,0.64 5.31,1.72 V 2.05 C 3.95,2.41 2.59,2.77 1.23,3.13 L 3.34,3.09 H 5.31 V 3.52 H 0.26 V 2.96 Z"
           class="cls-3" />
        <path
           style="fill:#436eee;stroke:#436eee;stroke-width:0.5px;stroke-linecap:round;stroke-linejoin:round"
           inkscape:connector-curvature="0"
           id="path99"
           d="m 5.31,13.988061 v 0.45 H 2.98 v 1.7 h 2.33 v 0.44 H 0.26 v -0.44 h 2.17 v -1.7 H 0.26 v -0.45 z"
           class="cls-3" />
        <path
           style="fill:#436eee;stroke:#436eee;stroke-width:0.5px;stroke-linecap:round;stroke-linejoin:round"
           inkscape:connector-curvature="0"
           id="path100"
           d="m 4.1,5.6326904 v 1.48 c 0,0.1 0.07,0.2 0.18,0.23 l 1.04,0.34 v 0.58 l -5.06,-1.78 v -0.2 c 0,0 5.06,-1.78 5.06,-1.78 v 0.58 l -1.07,0.36 c -0.09,0.03 -0.14,0.1 -0.14,0.19 z m -0.5,1.25 v -1 c 0,-0.11 -0.12,-0.19 -0.23,-0.15 l -1.5,0.5 c -0.15,0.05 -0.15,0.25 0,0.3 l 1.5,0.5 c 0.11,0.04 0.23,-0.04 0.23,-0.15 z"
           class="cls-3" />
        <g
           data-name="Ebene 1-2"
           id="g100" />
        <g
           data-name="Ebene 1-2"
           id="g105"
           transform="matrix(0.91379325,0,0,0.91379325,0.92905158,0.94825158)">
          <g
             id="g104"
             transform="matrix(0.91194983,0,0,0.91194983,0.87049533,0.96852862)">
            <g
               id="g103"
               transform="matrix(1.0839262,0,0,1.0839262,6.1398718,0.0201412)"
               style="fill:#436eee;fill-opacity:1">
              <circle
                 style="fill:#436eee;fill-opacity:1;stroke:#436eee;stroke-width:0;stroke-linecap:round;stroke-linejoin:round;stroke-miterlimit:7.5;stroke-dasharray:none;stroke-opacity:1"
                 id="circle100"
                 cx="4.3574357"
                 cy="11.775326"
                 r="0.3057923" />
              <circle
                 style="fill:#436eee;fill-opacity:1;stroke:#436eee;stroke-width:0;stroke-linecap:round;stroke-linejoin:round;stroke-miterlimit:7.5;stroke-dasharray:none;stroke-opacity:1"
                 id="circle101"
                 cx="4.3574357"
                 cy="10.674009"
                 r="0.3057923" />
              <circle
                 style="fill:#436eee;fill-opacity:1;stroke:#436eee;stroke-width:0;stroke-linecap:round;stroke-linejoin:round;stroke-miterlimit:7.5;stroke-dasharray:none;stroke-opacity:1"
                 id="circle102"
                 cx="4.3574357"
                 cy="9.5726938"
                 r="0.3057923" />
              <circle
                 style="fill:#436eee;fill-opacity:1;stroke:#436eee;stroke-width:0;stroke-linecap:round;stroke-linejoin:round;stroke-miterlimit:7.5;stroke-dasharray:none;stroke-opacity:1"
                 id="circle103"
                 cx="4.3574357"
                 cy="8.4713774"
                 r="0.3057923" />
            </g>
          </g>
        </g>
        <g
           data-name="Ebene 1-2"
           id="g108"
           style="display:inline">
          <g
             id="g107">
            <g
               id="g106"
               transform="matrix(1.0692048,0,0,1.0692048,-0.60316622,-0.13901553)"
               style="fill:#436eee;fill-opacity:1">
              <path
                 style="fill:#436eee;fill-opacity:1;stroke-width:1.00659"
                 inkscape:connector-curvature="0"
                 id="path105"
                 d="m 14.838512,15.868873 -8.4136356,-5.3e-5 c -0.049475,0 2.8135476,-2.467751 3.8228526,-3.317641 0.197905,-0.163833 0.621598,-0.167486 0.829396,-0.0037 z"
                 class="cls-1"
                 sodipodi:nodetypes="csccc" />
            </g>
          </g>
        </g>
      </g>
      <path
         style="display:inline;fill:#436eee;stroke:#436eee;stroke-width:0.722935;stroke-linecap:round;stroke-miterlimit:10;stroke-dasharray:none;stroke-opacity:1"
         inkscape:connector-curvature="0"
         id="path109"
         d="m 81.329328,25.625986 c -0.003,0.583739 -0.05958,2.75533 0.02271,4.037021 0.07365,1.165044 0.185365,2.06689 0.717901,2.626666 1.374212,1.444504 3.24719,1.476413 6.093559,1.568302 0.260757,0.0044 0.202924,-0.353715 -0.02275,-0.360518 -0.780314,-0.02262 -2.537832,-0.124159 -3.060972,-0.263583 -1.205243,-0.32084 -1.772825,-0.617852 -2.30515,-1.299227 -0.382618,-0.489178 -0.658168,-1.137825 -0.687869,-2.270552 -0.03978,-1.4258 -0.01195,-3.544043 -0.01195,-4.077051 9.78e-4,-0.657658 0.01699,-3.202064 0.01195,-3.446433 -0.004,-0.27662 0.05103,-0.947487 -0.113373,-0.950203 -0.116166,-0.002 -0.386596,-0.0044 -0.543055,-7.03e-4 -0.138304,0.0034 -0.09133,0.645521 -0.09133,0.93377 -9.77e-4,1.167532 -0.005,2.918805 -0.01195,3.502544 z"
         class="cls-2"
         sodipodi:nodetypes="zsssssssssssszz"
         transform="matrix(0.6667626,0,0,0.6667626,-39.991617,-5.8018411)" />
      <path
         style="display:inline;fill:#436eee;stroke:#436eee;stroke-width:0.722935;stroke-linecap:round;stroke-miterlimit:10;stroke-dasharray:none;stroke-opacity:1"
         inkscape:connector-curvature="0"
         id="path110"
         d="m 94.853911,41.713905 c 8.4e-4,-0.583797 0.05962,-2.755388 -0.02268,-4.037018 -0.07362,-1.165104 -0.185377,-2.066897 -0.717914,-2.626727 -0.616965,-0.648473 -1.349042,-1.030809 -2.226696,-1.2246 -1.710463,-0.37754 -2.338299,-0.281172 -3.855123,-0.332191 -0.261336,-0.01146 -0.213712,0.325381 0.01192,0.348624 0.458005,0.05096 2.537773,0.124132 3.060974,0.263584 1.205227,0.320831 1.772753,0.617905 2.305147,1.299255 0.382048,0.489191 0.658158,1.137788 0.687869,2.270507 0.03963,1.425851 0.012,3.544057 0.012,4.077059 -8.39e-4,0.65772 -0.01695,3.20207 -0.012,3.446488 0.0042,0.276624 -0.08399,0.502233 0.07815,0.50506 0.116166,0.0016 0.481243,0.0027 0.654406,7.54e-4 0.03979,-4.63e-4 0.01696,-0.282286 0.01696,-0.48862 -8.39e-4,-1.167541 0.005,-2.918818 0.01192,-3.502553 z"
         class="cls-2"
         sodipodi:nodetypes="zssssssssssssszz"
         transform="matrix(0.6667626,0,0,0.6667626,-39.991617,-5.8018411)" />
      <path
         style="display:inline;fill:#436eee;stroke:#436eee;stroke-width:0;stroke-linecap:round;stroke-miterlimit:10;stroke-dasharray:none;stroke-opacity:1"
         inkscape:connector-curvature="0"
         id="path111"
         d="m 95.215836,25.564942 c 0.0033,0.569673 0.05962,2.688941 -0.02268,3.939691 -0.07362,1.136979 -0.18537,2.017076 -0.717914,2.563353 -1.374211,1.409629 -3.340947,1.440293 -6.093547,1.530484 -0.238645,0.0044 -0.210303,-0.284556 -0.03409,-0.342369 0.01695,-0.0044 0.03409,-0.0044 0.05103,-0.01146 0.405286,-0.02826 2.174588,-0.09805 3.060957,-0.257346 1.225526,-0.219939 1.772753,-0.602942 2.305147,-1.26792 0.382048,-0.477285 0.65816,-1.110334 0.687869,-2.215747 0.03979,-1.391447 0.012,-3.458562 0.012,-3.978759 -8.39e-4,-0.641846 -0.01695,-3.124863 -0.012,-3.363332 0.0042,-0.269823 0.02838,-1.082282 0.03409,-1.186074 5.05e-4,-0.07081 0.09585,-0.145683 0.171771,-0.147951 0.08219,-0.0027 0.261302,1.69e-4 0.344648,-0.0034 0.08058,-0.0034 0.193286,0.07146 0.196116,0.144539 0.0042,0.089 0.0042,0.894493 0.0042,1.175702 8.39e-4,1.13942 0.005,2.848467 0.01192,3.418148 z"
         class="cls-2"
         sodipodi:nodetypes="zssssssssssssssszz"
         transform="matrix(0.6667626,0,0,0.6667626,-39.991617,-5.8018411)" />
      <path
         style="display:inline;fill:#436eee;stroke:#436eee;stroke-width:0;stroke-linecap:round;stroke-miterlimit:10;stroke-dasharray:none;stroke-opacity:1"
         inkscape:connector-curvature="0"
         id="path113"
         d="m 80.967338,41.441822 c -0.003,-0.556073 -0.05958,-2.624788 0.02271,-3.845716 0.07365,-1.10988 0.185357,-1.968944 0.717862,-2.502181 1.374201,-1.376085 3.340934,-1.406471 6.093596,-1.493983 0.260758,-0.0044 1.181537,0.259615 -0.02275,0.34351 -0.790305,0.05671 -1.805469,0.06011 -3.060969,0.251106 -1.229147,0.187076 -1.772775,0.588626 -2.305151,1.237717 -0.382044,0.465951 -0.658169,1.083872 -0.687869,2.162929 -0.03959,1.358266 -0.01195,3.376076 -0.01195,3.88386 9.77e-4,0.626482 0.01698,3.050321 0.01195,3.283137 -0.004,0.263582 -0.02833,1.056435 -0.03405,1.157727 -5.01e-4,0.06915 -0.09635,0.142264 -0.17175,0.144545 -0.08208,0.0027 -0.261324,-1.74e-4 -0.344658,0.0027 -0.08058,0.0027 -0.193274,-0.06985 -0.196118,-0.141153 -0.004,-0.08672 -0.004,-0.873111 -0.004,-1.147707 -9.77e-4,-1.112136 -0.005,-2.780422 -0.01195,-3.336565 z"
         class="cls-2"
         sodipodi:nodetypes="zsssssssssssssszz"
         transform="matrix(0.6667626,0,0,0.6667626,-39.991617,-5.8018411)" />
      <path
         style="display:inline;fill:#436eee;fill-opacity:1;stroke:#436eee;stroke-width:0.293191px;stroke-linecap:round;stroke-miterlimit:10;stroke-opacity:1"
         inkscape:connector-curvature="0"
         id="path114"
         d="m 92.226245,22.132337 c -0.21654,0 -10.346345,0.01134 -10.346345,0.01134 -0.239202,0 -0.373546,0.101473 -0.373546,0.221076 0,0.119599 0.164388,0.221067 0.373546,0.221067 0,0 10.145386,0 10.34956,0 0.202941,0 0.426834,0.01699 0.425148,-0.0743 -8.41e-4,-0.07652 -0.005,-0.214271 -0.005,-0.304968 2.11e-4,-0.09919 -0.206911,-0.07428 -0.423443,-0.07428 z"
         class="cls-2"
         sodipodi:nodetypes="zsssssszz"
         transform="matrix(0.6667626,0,0,0.6667626,-39.991617,-5.8018411)" />
      <path
         id="path115"
         style="display:inline;fill:#436eee;fill-opacity:1;stroke:#436eee;stroke-width:0.293191px;stroke-linecap:round;stroke-miterlimit:10;stroke-opacity:1"
         class="cls-2"
         d="m 85.815081,31.343544 c -0.05097,7.53e-4 -0.103683,0.0027 -0.158161,0.0027 -0.07987,0 -2.042848,7.54e-4 -3.810971,0.0027 v 0.451214 c 1.770152,0 3.738632,0 3.813917,0 0.202941,0 0.426281,0.01695 0.424569,-0.07594 -8.39e-4,-0.07647 -0.005,-0.214267 -0.005,-0.304973 1.08e-4,-0.07428 -0.113899,-0.07812 -0.263586,-0.07594 z"
         transform="matrix(0.6667626,0,0,0.6667626,-39.991617,-5.8018411)" />
      <path
         id="path116"
         style="display:inline;fill:#436eee;fill-opacity:1;stroke:#436eee;stroke-width:0.293191px;stroke-linecap:round;stroke-miterlimit:10;stroke-opacity:1"
         class="cls-2"
         d="m 87.139131,29.501065 c -0.05096,7.52e-4 -0.103799,0.0027 -0.15816,0.0027 -0.117901,0 -2.862014,0.0027 -5.615412,0.0044 v 0.44838 c 2.756734,0 5.507477,0 5.618289,0 0.202942,0 0.426282,0.01695 0.424578,-0.07594 -8.39e-4,-0.07655 -0.0042,-0.214268 -0.0033,-0.304406 1.1e-4,-0.07428 -0.116833,-0.07812 -0.266416,-0.07594 z"
         transform="matrix(0.6667626,0,0,0.6667626,-39.991617,-5.8018411)" />
      <path
         id="path117"
         style="display:inline;fill:#436eee;fill-opacity:1;stroke:#436eee;stroke-width:0.293191px;stroke-linecap:round;stroke-miterlimit:10;stroke-opacity:1"
         class="cls-2"
         d="m 88.448549,27.658535 c -0.05103,7.04e-4 -0.103811,0.0027 -0.15817,0.0027 -0.148499,0 -4.07983,0.0051 -7.088816,0.01134 v 0.44215 c 3.012794,0 6.951885,0 7.091771,0 0.202932,5.2e-5 0.426281,0.01705 0.424567,-0.07307 -8.39e-4,-0.07647 -0.0042,-0.214266 -0.0033,-0.304398 1.17e-4,-0.07428 -0.116844,-0.0782 -0.266415,-0.07604 z"
         transform="matrix(0.6667626,0,0,0.6667626,-39.991617,-5.8018411)" />
      <path
         id="path118"
         style="display:inline;fill:#436eee;fill-opacity:1;stroke:#436eee;stroke-width:0.293191px;stroke-linecap:round;stroke-miterlimit:10;stroke-opacity:1"
         class="cls-2"
         d="m 89.766688,25.816055 c -0.05096,7.03e-4 -0.103682,0.0027 -0.158145,0.0027 -0.175161,0 -5.834125,0.0055 -8.371833,0.01146 v 0.442132 c 2.540894,0 8.209584,0 8.374764,0 0.20294,0 0.426281,0.017 0.424568,-0.07314 -8.4e-4,-0.07653 -0.005,-0.21427 -0.005,-0.304397 1.6e-4,-0.07426 -0.113898,-0.0782 -0.263585,-0.07599 z"
         transform="matrix(0.6667626,0,0,0.6667626,-39.991617,-5.8018411)" />
      <path
         id="path119"
         style="display:inline;fill:#436eee;fill-opacity:1;stroke:#436eee;stroke-width:0.293191px;stroke-linecap:round;stroke-miterlimit:10;stroke-opacity:1"
         class="cls-2"
         d="m 90.926674,23.973516 c -0.203502,0 -8.650031,0.01134 -9.72516,0.01134 v 0.442142 c 1.076505,0 9.536181,0 9.728115,0 0.202942,0 0.426274,0.017 0.424569,-0.07314 -8.39e-4,-0.07652 -0.005,-0.214266 -0.005,-0.304395 2.27e-4,-0.09919 -0.205199,-0.07598 -0.421739,-0.07598 z"
         transform="matrix(0.6667626,0,0,0.6667626,-39.991617,-5.8018411)" />
    </a>
    <path
       id="path11"
       style="display:inline;fill:none;fill-opacity:1;stroke:#436eee;stroke-width:1.585;stroke-linecap:round;stroke-linejoin:round;stroke-miterlimit:7.5;stroke-dasharray:none;stroke-opacity:1"
       d="m 69.577822,45.664039 c 0,1.210387 1.011284,2.26736 2.267359,2.26736 h 23.064984 c 1.256077,0 2.26736,-1.01129 2.26736,-2.26736 V 20.92773 c 0,-1.256069 -1.011283,-2.267101 -2.26736,-2.267101 h -23.0655 c -1.256075,0 -2.26739,1.011032 -2.267359,2.267101 v 19.937897 l -12.97875,-1.801351 12.97875,5.435785 z"
       sodipodi:nodetypes="cssssssccccc" />
    <g
       id="g1"
       style="stroke:#436eee;stroke-opacity:1;stroke-width:1.585;stroke-dasharray:none">
      <rect
         style="fill:none;stroke:#436eee;stroke-width:1.585;stroke-linecap:round;stroke-miterlimit:7.5;stroke-dasharray:none;stroke-opacity:1"
         id="rect3"
         width="92.379082"
         height="58.300629"
         x="11.916893"
         y="12.291162"
         ry="4.5158973"
         inkscape:export-filename="Logo_HAAM_radio_v1.0.png"
         inkscape:export-xdpi="300"
         inkscape:export-ydpi="300" />
      <path
         style="fill:#000000;stroke:#436eee;stroke-width:1.585;stroke-linecap:square;stroke-miterlimit:7.5;stroke-dasharray:none;stroke-opacity:1"
         d="m 11.961467,59.442127 92.289923,0.0126"
         id="path38"
         sodipodi:nodetypes="cc" />
      <path
         style="fill:#000000;stroke:#436eee;stroke-width:1.585;stroke-linecap:round;stroke-miterlimit:7.5;stroke-dasharray:none;stroke-opacity:1"
         d="m 55.911843,65.190307 4.183764,-0.0126"
         id="path40"
         sodipodi:nodetypes="cc" />
      <path
         style="fill:#000000;stroke:#436eee;stroke-width:1.585;stroke-linecap:square;stroke-miterlimit:7.5;stroke-dasharray:none;stroke-opacity:1"
         d="m 43.916889,83.309629 28.379074,0.004"
         id="path41"
         sodipodi:nodetypes="cc" />
      <rect
         style="fill:none;stroke:#436eee;stroke-width:1.57694;stroke-linecap:round;stroke-miterlimit:7.5;stroke-dasharray:none;stroke-opacity:1"
         id="rect41"
         width="11.529334"
         height="12.688308"
         x="52.341747"
         y="70.591789"
         ry="0.98282123"
         inkscape:export-filename="Logo_HAAM_radio_v1.0.png"
         inkscape:export-xdpi="300"
         inkscape:export-ydpi="300" />
    </g>
  </g>
</svg>
