<?xml version="1.0" encoding="UTF-8" standalone="no"?>
<!-- Created with Inkscape (http://www.inkscape.org/) -->

<svg
   width="85mm"
   height="85mm"
   viewBox="0 0 85 85"
   version="1.1"
   id="svg1"
   inkscape:version="1.3 (0e150ed, 2023-07-21)"
   sodipodi:docname="Logo_HAAM_Radio_v1.0.svg"
   xmlns:inkscape="http://www.inkscape.org/namespaces/inkscape"
   xmlns:sodipodi="http://sodipodi.sourceforge.net/DTD/sodipodi-0.dtd"
   xmlns="http://www.w3.org/2000/svg"
   xmlns:svg="http://www.w3.org/2000/svg">
  <sodipodi:namedview
     id="namedview1"
     pagecolor="#ffffff"
     bordercolor="#000000"
     borderopacity="0.25"
     inkscape:showpageshadow="2"
     inkscape:pageopacity="0.0"
     inkscape:pagecheckerboard="0"
     inkscape:deskcolor="#d1d1d1"
     inkscape:document-units="mm"
     inkscape:zoom="0.68729735"
     inkscape:cx="273.53517"
     inkscape:cy="277.9001"
     inkscape:window-width="1440"
     inkscape:window-height="777"
     inkscape:window-x="0"
     inkscape:window-y="30"
     inkscape:window-maximized="1"
     inkscape:current-layer="layer1" />
  <defs
     id="defs1" />
  <g
     inkscape:label="Layer 1"
     inkscape:groupmode="layer"
     id="layer1">
    <rect
       style="fill:none;stroke:#436eee;stroke-width:2.5;stroke-linecap:round;stroke-miterlimit:7.5;stroke-dasharray:none;stroke-opacity:1"
       id="rect1"
       width="75.188904"
       height="47.451874"
       x="4.9541674"
       y="33.344139"
       ry="11.713592"
       inkscape:export-filename="Logo_HAAM_radio_v1.0.png"
       inkscape:export-xdpi="300"
       inkscape:export-ydpi="300" />
    <path
       style="fill:none;stroke:#436eee;stroke-width:2.5;stroke-linecap:round;stroke-miterlimit:7.5;stroke-dasharray:none;stroke-opacity:1"
       d="M 73.505358,34.520564 15.600143,4.1604175"
       id="path1" />
    <rect
       style="fill:none;stroke:#436eee;stroke-width:2;stroke-linecap:round;stroke-miterlimit:7.5;stroke-dasharray:none;stroke-opacity:1"
       id="rect2"
       width="14.281192"
       height="4.2810936"
       x="16.79845"
       y="28.605585"
       ry="0.92880136" />
    <circle
       style="fill:none;stroke:#436eee;stroke-width:2;stroke-linecap:round;stroke-miterlimit:7.5;stroke-dasharray:none;stroke-opacity:1"
       id="path2"
       cx="61.391491"
       cy="50.15432"
       r="9.6712666" />
    <circle
       style="fill:none;stroke:#436eee;stroke-width:1.9;stroke-linecap:round;stroke-miterlimit:7.5;stroke-dasharray:none;stroke-opacity:1"
       id="circle2"
       cx="68.809944"
       cy="69.370865"
       r="4.2720113" />
    <circle
       style="fill:none;stroke:#436eee;stroke-width:1.9;stroke-linecap:round;stroke-miterlimit:7.5;stroke-dasharray:none;stroke-opacity:1"
       id="circle3"
       cx="54.120754"
       cy="69.370865"
       r="4.2720113" />
    <a
       id="a30"
       inkscape:export-filename="/home/tina/Desktop/HAAM_community/Logo_With_HAAM_Blue_mastodon.png"
       inkscape:export-xdpi="1200"
       inkscape:export-ydpi="1200"
       style="display:inline;stroke:#436eee;stroke-opacity:1"
       transform="matrix(1.7240683,0,0,1.7240683,0.38404401,28.574074)">
      <g
         transform="translate(7.9701534,8.0862518)"
         inkscape:export-ydpi="900"
         inkscape:export-xdpi="900"
         inkscape:export-filename="/home/tina/Desktop/HAAM_community/Logo_With_HAAM_Blue.png"
         data-name="Ebene 1"
         id="g30"
         style="stroke:#436eee;stroke-opacity:1">
        <path
           style="fill:#436eee;stroke:#436eee;stroke-width:0.5px;stroke-linecap:round;stroke-linejoin:round;stroke-opacity:1"
           inkscape:connector-curvature="0"
           id="path1-5"
           d="m 4.1,10.375371 v 1.48 c 0,0.1 0.07,0.2 0.18,0.23 l 1.04,0.34 v 0.58 l -5.06,-1.78 v -0.2 c 0,0 5.06,-1.7800005 5.06,-1.7800005 v 0.58 L 4.25,10.185371 c -0.09,0.03 -0.14,0.1 -0.14,0.19 z m -0.5,1.25 v -1 c 0,-0.11 -0.12,-0.19 -0.23,-0.15 l -1.5,0.5 c -0.15,0.05 -0.15,0.25 0,0.3 l 1.5,0.5 c 0.11,0.04 0.23,-0.04 0.23,-0.15 z"
           class="cls-3" />
        <path
           style="fill:#436eee;stroke:#436eee;stroke-width:0.5px;stroke-linecap:round;stroke-linejoin:round;stroke-opacity:1"
           inkscape:connector-curvature="0"
           id="path2-8"
           d="M 0.26,2.97 3.97,2 C 4.09,1.97 4.09,1.82 3.97,1.79 L 0.26,0.81 V 0.25 H 5.31 V 0.68 H 3.34 L 1.22,0.64 5.31,1.72 V 2.05 C 3.95,2.41 2.59,2.77 1.23,3.13 L 3.34,3.09 H 5.31 V 3.52 H 0.26 V 2.96 Z"
           class="cls-3" />
        <path
           style="fill:#436eee;stroke:#436eee;stroke-width:0.5px;stroke-linecap:round;stroke-linejoin:round;stroke-opacity:1"
           inkscape:connector-curvature="0"
           id="path3"
           d="m 5.31,13.988061 v 0.45 H 2.98 v 1.7 h 2.33 v 0.44 H 0.26 v -0.44 h 2.17 v -1.7 H 0.26 v -0.45 z"
           class="cls-3" />
        <path
           style="fill:#436eee;stroke:#436eee;stroke-width:0.5px;stroke-linecap:round;stroke-linejoin:round;stroke-opacity:1"
           inkscape:connector-curvature="0"
           id="path4"
           d="m 4.1,5.6326904 v 1.48 c 0,0.1 0.07,0.2 0.18,0.23 l 1.04,0.34 v 0.58 l -5.06,-1.78 v -0.2 c 0,0 5.06,-1.78 5.06,-1.78 v 0.58 l -1.07,0.36 c -0.09,0.03 -0.14,0.1 -0.14,0.19 z m -0.5,1.25 v -1 c 0,-0.11 -0.12,-0.19 -0.23,-0.15 l -1.5,0.5 c -0.15,0.05 -0.15,0.25 0,0.3 l 1.5,0.5 c 0.11,0.04 0.23,-0.04 0.23,-0.15 z"
           class="cls-3" />
        <g
           data-name="Ebene 1-2"
           id="g50"
           style="stroke:#436eee;stroke-opacity:1" />
        <g
           data-name="Ebene 1-2"
           id="g63"
           transform="matrix(0.91379325,0,0,0.91379325,0.92905158,0.94825158)"
           style="stroke:#436eee;stroke-opacity:1">
          <g
             id="g62"
             transform="matrix(0.91194983,0,0,0.91194983,0.87049533,0.96852862)"
             style="stroke:#436eee;stroke-opacity:1">
            <g
               id="g53"
               transform="matrix(1.0839262,0,0,1.0839262,6.1398718,0.0201412)"
               style="fill:#436eee;fill-opacity:1;stroke:#436eee;stroke-opacity:1">
              <circle
                 style="fill:#436eee;fill-opacity:1;stroke:#436eee;stroke-width:0;stroke-linecap:round;stroke-linejoin:round;stroke-miterlimit:7.5;stroke-dasharray:none;stroke-opacity:1"
                 id="path61"
                 cx="4.3574357"
                 cy="11.775326"
                 r="0.3057923" />
              <circle
                 style="fill:#436eee;fill-opacity:1;stroke:#436eee;stroke-width:0;stroke-linecap:round;stroke-linejoin:round;stroke-miterlimit:7.5;stroke-dasharray:none;stroke-opacity:1"
                 id="circle61"
                 cx="4.3574357"
                 cy="10.674009"
                 r="0.3057923" />
              <circle
                 style="fill:#436eee;fill-opacity:1;stroke:#436eee;stroke-width:0;stroke-linecap:round;stroke-linejoin:round;stroke-miterlimit:7.5;stroke-dasharray:none;stroke-opacity:1"
                 id="circle62"
                 cx="4.3574357"
                 cy="9.5726938"
                 r="0.3057923" />
              <circle
                 style="fill:#436eee;fill-opacity:1;stroke:#436eee;stroke-width:0;stroke-linecap:round;stroke-linejoin:round;stroke-miterlimit:7.5;stroke-dasharray:none;stroke-opacity:1"
                 id="circle67"
                 cx="4.3574357"
                 cy="8.4713774"
                 r="0.3057923" />
            </g>
          </g>
        </g>
        <g
           data-name="Ebene 1-2"
           id="g29"
           style="display:inline;stroke:none;stroke-opacity:1">
          <g
             id="g27"
             style="stroke:none;stroke-opacity:1">
            <g
               id="g15"
               transform="matrix(1.0692048,0,0,1.0692048,-0.60316622,-0.13901553)"
               style="fill:#436eee;fill-opacity:1;stroke:none;stroke-opacity:1">
              <path
                 style="fill:#436eee;fill-opacity:1;stroke:none;stroke-width:1.00659;stroke-opacity:1"
                 inkscape:connector-curvature="0"
                 id="path13"
                 d="m 14.838512,15.868873 -8.4136356,-5.3e-5 c -0.049475,0 2.8135476,-2.467751 3.8228526,-3.317641 0.197905,-0.163833 0.621598,-0.167486 0.829396,-0.0037 z"
                 class="cls-1"
                 sodipodi:nodetypes="csccc" />
            </g>
          </g>
        </g>
      </g>
    </a>
    <path
       style="display:inline;fill:#436eee;stroke:#436eee;stroke-width:0.831045;stroke-linecap:round;stroke-miterlimit:10;stroke-dasharray:none;stroke-opacity:1"
       inkscape:connector-curvature="0"
       id="path39"
       d="m 24.927433,48.029506 c -0.003,0.67104 -0.0684,3.16738 0.0261,4.64074 0.0847,1.33927 0.21308,2.37598 0.82526,3.01947 1.57972,1.66052 3.73279,1.6972 7.00481,1.80283 0.29976,0.005 0.23329,-0.40661 -0.0261,-0.41443 -0.89701,-0.026 -2.91735,-0.14272 -3.51873,-0.303 -1.38546,-0.36882 -2.03793,-0.71025 -2.64986,-1.49352 -0.43984,-0.56233 -0.75659,-1.30798 -0.79074,-2.6101 -0.0456,-1.63902 -0.013,-4.07404 -0.013,-4.68675 0.002,-0.75601 0.0195,-3.68092 0.013,-3.96183 -0.005,-0.31799 0.0586,-1.08918 -0.13031,-1.0923 -0.13359,-0.002 -0.44441,-0.005 -0.62426,-8.4e-4 -0.15899,0.004 -0.1049,0.74206 -0.1049,1.07341 -0.002,1.34213 -0.006,3.3553 -0.013,4.02633 z"
       class="cls-2"
       sodipodi:nodetypes="zsssssssssssszz" />
    <path
       style="display:inline;fill:#436eee;stroke:#436eee;stroke-width:0.831045;stroke-linecap:round;stroke-miterlimit:10;stroke-dasharray:none;stroke-opacity:1"
       inkscape:connector-curvature="0"
       id="path58"
       d="m 40.474548,66.523286 c 0.002,-0.6711 0.0684,-3.16744 -0.0261,-4.64073 -0.0847,-1.33934 -0.21308,-2.37599 -0.82527,-3.01954 -0.70922,-0.74545 -1.55079,-1.18496 -2.559695,-1.40773 -1.96625,-0.434 -2.68797,-0.32322 -4.43164,-0.38187 -0.3004,-0.0131 -0.24566,0.37404 0.0131,0.40076 0.5265,0.0586 2.91728,0.1427 3.51872,0.303 1.385475,0.36881 2.037875,0.71031 2.649875,1.49355 0.43918,0.56235 0.75659,1.30794 0.79074,2.61005 0.0456,1.63908 0.013,4.07405 0.013,4.68676 -0.002,0.75608 -0.0195,3.68092 -0.013,3.96189 0.005,0.31799 -0.0964,0.57734 0.0899,0.58059 0.13358,0.002 0.55322,0.003 0.75228,8.4e-4 0.0456,-5.3e-4 0.0195,-0.3245 0.0195,-0.56169 -10e-4,-1.34214 0.006,-3.35531 0.013,-4.02634 z"
       class="cls-2"
       sodipodi:nodetypes="zssssssssssssszz" />
    <path
       style="display:inline;fill:#436eee;stroke:#436eee;stroke-width:0;stroke-linecap:round;stroke-miterlimit:10;stroke-dasharray:none;stroke-opacity:1"
       inkscape:connector-curvature="0"
       id="path60"
       d="m 40.890608,47.959336 c 0.003,0.65486 0.0684,3.09106 -0.0261,4.52885 -0.0847,1.30701 -0.21309,2.31872 -0.82528,2.94669 -1.57971,1.62043 -3.840565,1.65568 -7.004815,1.75936 -0.27433,0.005 -0.24175,-0.32711 -0.0391,-0.39357 0.0195,-0.005 0.0391,-0.005 0.0586,-0.0131 0.4659,-0.0325 2.49979,-0.11272 3.51872,-0.29583 1.408795,-0.25283 2.037875,-0.69311 2.649875,-1.45753 0.43918,-0.54866 0.75659,-1.27638 0.79074,-2.5471 0.0456,-1.59953 0.013,-3.97577 0.013,-4.57376 -0.002,-0.73783 -0.0195,-3.59217 -0.013,-3.8663 0.005,-0.31017 0.0325,-1.24413 0.0391,-1.36345 7.1e-4,-0.0814 0.11012,-0.16746 0.19744,-0.17007 0.0945,-0.003 0.3004,1.9e-4 0.39618,-0.004 0.0926,-0.004 0.2222,0.0821 0.22546,0.16616 0.004,0.1023 0.004,1.02825 0.004,1.35151 0.002,1.30982 0.006,3.27444 0.013,3.92932 z"
       class="cls-2"
       sodipodi:nodetypes="zssssssssssssssszz" />
    <path
       style="display:inline;fill:#00aa00;fill-opacity:1;stroke:#436eee;stroke-width:0;stroke-linecap:round;stroke-linejoin:round;stroke-miterlimit:7.5;stroke-dasharray:none;stroke-opacity:1"
       d="m 27.656083,61.101186 2.34295,-0.20981"
       id="path78" />
    <path
       style="display:inline;fill:#436eee;stroke:#436eee;stroke-width:0;stroke-linecap:round;stroke-miterlimit:10;stroke-dasharray:none;stroke-opacity:1"
       inkscape:connector-curvature="0"
       id="path79"
       d="m 24.511313,66.210516 c -0.003,-0.63923 -0.0684,-3.01731 0.0261,-4.42082 0.0847,-1.27586 0.21307,-2.26339 0.8252,-2.87637 1.57971,-1.58187 3.84056,-1.6168 7.00487,-1.7174 0.29976,-0.005 1.35823,0.29844 -0.0261,0.39488 -0.90848,0.0652 -2.07546,0.0691 -3.51873,0.28866 -1.41296,0.21505 -2.03786,0.67665 -2.64986,1.42281 -0.43919,0.53563 -0.7566,1.24596 -0.79073,2.48638 -0.0456,1.56139 -0.013,3.88095 -0.013,4.46467 0.002,0.72017 0.0195,3.50648 0.013,3.77411 -0.005,0.303 -0.0326,1.21442 -0.0391,1.33086 -6.5e-4,0.0795 -0.11078,0.16354 -0.19744,0.16616 -0.0945,0.003 -0.30039,-2e-4 -0.39619,0.003 -0.0926,0.003 -0.22219,-0.0803 -0.22545,-0.16226 -0.004,-0.0997 -0.004,-1.00368 -0.004,-1.31934 -0.002,-1.27845 -0.006,-3.19622 -0.013,-3.83553 z"
       class="cls-2"
       sodipodi:nodetypes="zsssssssssssssszz" />
    <path
       style="display:inline;fill:#436eee;fill-opacity:1;stroke:#436eee;stroke-width:0.337038px;stroke-linecap:round;stroke-miterlimit:10;stroke-opacity:1"
       inkscape:connector-curvature="0"
       id="path21"
       d="m 37.453913,44.013406 c -0.24892,0 -11.89357,0.013 -11.89357,0.013 -0.27498,0 -0.4294,0.11663 -0.4294,0.25413 0,0.13749 0.18896,0.25413 0.4294,0.25413 h 11.89728 c 0.233285,0 0.490675,0.0195 0.488725,-0.0854 -0.002,-0.088 -0.006,-0.24631 -0.006,-0.35057 2.6e-4,-0.11403 -0.33551,-0.0952 -0.486755,-0.0854 -0.15125,0.01 3.2e-4,1.1e-4 3.2e-4,1.1e-4 z"
       class="cls-2"
       sodipodi:nodetypes="zsssssszz" />
    <path
       id="path5"
       style="display:inline;fill:#436eee;fill-opacity:1;stroke:#436eee;stroke-width:0.337038px;stroke-linecap:round;stroke-miterlimit:10;stroke-opacity:1"
       class="cls-2"
       d="m 30.084003,54.602096 c -0.0586,8.4e-4 -0.11925,0.003 -0.1818,0.003 -0.0918,0 -2.34836,8.4e-4 -4.38089,0.003 v 0.51869 c 2.03487,0 4.29774,0 4.38427,0 0.23328,0 0.49002,0.0195 0.48806,-0.0873 -0.002,-0.0879 -0.006,-0.24631 -0.006,-0.35058 1.4e-4,-0.0854 -0.13097,-0.0898 -0.303,-0.0873 z" />
    <path
       id="path7"
       style="display:inline;fill:#436eee;fill-opacity:1;stroke:#436eee;stroke-width:0.337038px;stroke-linecap:round;stroke-miterlimit:10;stroke-opacity:1"
       class="cls-2"
       d="m 31.606053,52.484086 c -0.0586,8.4e-4 -0.11926,0.003 -0.18181,0.003 -0.13554,0 -3.29001,0.003 -6.45517,0.005 v 0.51543 c 3.169,0 6.3311,0 6.45849,0 0.23329,0 0.49002,0.0195 0.48807,-0.0873 -0.002,-0.088 -0.004,-0.24631 -0.003,-0.34993 1.2e-4,-0.0854 -0.13424,-0.0898 -0.30627,-0.0873 z" />
    <path
       id="path9"
       style="display:inline;fill:#436eee;fill-opacity:1;stroke:#436eee;stroke-width:0.337038px;stroke-linecap:round;stroke-miterlimit:10;stroke-opacity:1"
       class="cls-2"
       d="m 33.111283,50.366016 c -0.0586,8.3e-4 -0.11924,0.003 -0.18181,0.003 -0.17072,0 -4.68994,0.006 -8.14891,0.013 v 0.50827 c 3.46334,0 7.99149,0 8.15231,0 0.23327,6e-5 0.49001,0.0196 0.48805,-0.084 -0.002,-0.0879 -0.004,-0.24631 -0.003,-0.34992 1.3e-4,-0.0854 -0.13424,-0.0899 -0.30627,-0.0874 z" />
    <path
       id="path11"
       style="display:inline;fill:#436eee;fill-opacity:1;stroke:#436eee;stroke-width:0.337038px;stroke-linecap:round;stroke-miterlimit:10;stroke-opacity:1"
       class="cls-2"
       d="m 34.626543,48.247996 c -0.0586,8.4e-4 -0.11924,0.003 -0.18179,0.003 -0.20136,0 -6.70657,0.006 -9.62379,0.0131 v 0.50826 c 2.92086,0 9.4373,0 9.62717,0 0.23328,0 0.49002,0.0195 0.48806,-0.0841 -0.002,-0.088 -0.006,-0.24632 -0.006,-0.34992 2e-4,-0.0854 -0.13097,-0.0899 -0.303,-0.0873 z" />
    <path
       id="path15"
       style="display:inline;fill:#436eee;fill-opacity:1;stroke:#436eee;stroke-width:0.337038px;stroke-linecap:round;stroke-miterlimit:10;stroke-opacity:1"
       class="cls-2"
       d="m 35.960013,46.129916 c -0.23393,0 -9.9436,0.013 -11.17951,0.013 v 0.50827 c 1.23748,0 10.96227,0 11.18291,0 0.23327,0 0.49001,0.0195 0.48805,-0.0841 -0.002,-0.088 -0.006,-0.24631 -0.006,-0.34992 2.6e-4,-0.11403 -0.23588,-0.0873 -0.4848,-0.0873 z" />
  </g>
</svg>
