<?xml version="1.0" encoding="UTF-8"?>
<svg id="Ebene_2" data-name="Ebene 2" xmlns="http://www.w3.org/2000/svg" viewBox="0 0 15.05 15.69">
  <defs>
    <style>
      .cls-1, .cls-2, .cls-3 {
        fill: #436eee;
      }

      .cls-2 {
        stroke-miterlimit: 10;
        stroke-width: .25px;
      }

      .cls-2, .cls-3 {
        stroke: #436eee;
        stroke-linecap: round;
      }

      .cls-3 {
        stroke-linejoin: round;
        stroke-width: .5px;
      }
    </style>
  </defs>
  <g id="Ebene_1-2" data-name="Ebene 1">
    <path class="cls-3" d="m4.09,9.63v1.48c0,.1.07.2.18.23l1.04.34v.58L.25,10.48v-.2s5.06-1.78,5.06-1.78v.58l-1.07.36c-.09.03-.14.1-.14.19Zm-.5,1.25v-1c0-.11-.12-.19-.23-.15l-1.5.5c-.15.05-.15.25,0,.3l1.5.5c.11.04.23-.04.23-.15Z"/>
    <path class="cls-3" d="m.26,2.97l3.71-.97c.12-.03.12-.18,0-.21L.26.81V.25h5.05v.43h-1.97l-2.12-.04,4.09,1.08v.33c-1.36.36-2.72.72-4.08,1.08l2.11-.04h1.97v.43H.26v-.56Z"/>
    <path class="cls-3" d="m5.31,12.85v.45h-2.33v1.7h2.33v.44H.26v-.44h2.17v-1.7H.26v-.45h5.05Z"/>
    <path class="cls-3" d="m4.1,5.26v1.48c0,.1.07.2.18.23l1.04.34v.58L.26,6.11v-.2s5.06-1.78,5.06-1.78v.58l-1.07.36c-.09.03-.14.1-.14.19Zm-.5,1.25v-1c0-.11-.12-.19-.23-.15l-1.5.5c-.15.05-.15.25,0,.3l1.5.5c.11.04.23-.04.23-.15Z"/>
    <g id="Ebene_1-2" data-name="Ebene 1-2">
      <g>
        <path class="cls-1" d="m14.7,15.65c-.17,0-.32,0-.32-.32,0-.85,0-1.6.02-2.26.03-2.13.05-3.32-.4-3.97-.66-.96-2.27-.9-3.82-.84-1.64.06-3.19.12-3.81-.99-.49-.89-.48-2.24-.45-4.47,0-.7.03-1.48.02-2.38,0-.35.15-.32.32-.32h0c.17,0,.33,0,.32.32,0,.89,0,1.68-.02,2.39-.03,2.12-.06,3.4.36,4.15.43.76,1.79.72,3.24.66,1.73-.06,3.51-.13,4.36,1.12.56.82.54,2.08.51,4.34,0,.66-.03,1.41-.02,2.25,0,.28-.1.32-.25.32,0,0-.07,0-.07,0Z"/>
        <g>
          <path class="cls-1" d="m10.3,8.82c-.06,0-.11-.05-.11-.11v-.04c0-.06.05-.11.11-.11s.11.05.11.11v.04c0,.06-.05.11-.11.11Z"/>
          <path class="cls-1" d="m10.3,10.62c-.06,0-.11-.05-.11-.11v-.08c0-.06.05-.11.11-.11s.11.05.11.11v.08c0,.06-.05.11-.11.11Zm0-.9c-.06,0-.11-.05-.11-.11v-.08c0-.06.05-.11.11-.11s.11.05.11.11v.08c0,.06-.05.11-.11.11Z"/>
          <path class="cls-1" d="m10.3,11.47c-.06,0-.11-.05-.11-.11v-.04c0-.06.05-.11.11-.11s.11.05.11.11v.04c0,.06-.05.11-.11.11Z"/>
        </g>
        <g>
          <path class="cls-1" d="m14.71,15.54h0s-8.68,0-8.68,0c-.05,0,3-2.41,4.02-3.24.2-.16.49-.16.7,0l3.97,3.23Z"/>
          <path class="cls-1" d="m5.96,15.66v-.03s-.02-.05-.02-.05c-.02-.06.71-.68,2.19-1.86.73-.58,1.45-1.16,1.86-1.49.24-.19.58-.19.82,0l4.07,3.27-.03.15h-.15l-8.72.02h-.04Zm4.45-3.38c-.1,0-.19.03-.28.1-.41.33-1.13.91-1.86,1.49-.74.59-1.56,1.24-1.93,1.55h8.11l-3.74-3.05c-.09-.07-.18-.11-.28-.11h0Z"/>
        </g>
        <path class="cls-1" d="m5.82,13.06c-.04-2.05-.06-2.98.47-3.75.76-1.12,2.11-1.38,3.94-1.44h0c.06,0,.11.05.11.11s-.05.11-.11.11c-1.76.06-3.06.31-3.76,1.35-.48.72-.47,1.63-.43,3.63,0,.71.05,1.51.03,2.49,0,.11-.05.11-.11.11h0c-.06,0-.11.02-.11-.11"/>
        <path class="cls-1" d="m10.61,8.16c-.06,0-.11-.05-.11-.11s.05-.11.11-.11c1.74-.06,3.04-.32,3.73-1.4.51-.79.49-1.8.48-4.05,0-.64,0-1.38,0-2.24,0-.14,0-.13.11-.13h0q.11,0,.11.13c0,.86,0,1.6,0,2.24.03,2.29.04,3.34-.5,4.17-.75,1.15-2.1,1.43-3.9,1.49h-.02Z"/>
        <path class="cls-2" d="m13.46,1.59h-6.92c-.16,0-.25-.11-.25-.24s.11-.24.25-.24h6.93c.14,0,.25.11.25.24s-.12.24-.25.24h0Z"/>
        <path class="cls-2" d="m12.4,2.84h-5.9c-.14,0-.21-.11-.21-.24s.09-.24.21-.24h5.9c.12,0,.21.11.21.24s-.1.24-.21.24Z"/>
        <path class="cls-2" d="m11.64,4.18h-5.13c-.12,0-.22-.11-.22-.24s.12-.24.22-.24h5.11c.11,0,.22.11.22.24s-.11.24-.21.24h0Z"/>
        <path class="cls-2" d="m10.63,5.53h-4.11c-.11,0-.22-.11-.22-.24s.12-.24.22-.24h4.11c.13,0,.22.11.22.24s-.1.24-.22.24Z"/>
        <path class="cls-2" d="m9.58,6.87h-2.96c-.11,0-.22-.11-.22-.24s.11-.24.23-.24h2.96c.11,0,.21.11.21.24s-.11.24-.22.24Z"/>
      </g>
    </g>
  </g>
</svg>