<?xml version="1.0" encoding="UTF-8"?>
<svg id="Ebene_2" data-name="Ebene 2" xmlns="http://www.w3.org/2000/svg" viewBox="0 0 9.25 15.56">
  <defs>
    <style>
      .cls-1, .cls-2 {
        fill: #436eee;
      }

      .cls-2 {
        stroke: #436eee;
        stroke-linecap: round;
        stroke-miterlimit: 10;
        stroke-width: .25px;
      }
    </style>
  </defs>
  <g id="Ebene_1-2" data-name="Ebene 1">
    <g id="Ebene_1-2" data-name="Ebene 1-2">
      <g>
        <path class="cls-1" d="m8.9,15.55c-.17,0-.32,0-.32-.32,0-.85,0-1.6.02-2.26.03-2.13.05-3.32-.4-3.97-.66-.96-2.27-.9-3.82-.84-1.64.06-3.19.12-3.81-.99C.08,6.28.09,4.93.12,2.7c0-.7.03-1.48.02-2.38,0-.35.15-.32.32-.32H.46C.64,0,.79,0,.78.32c0,.89,0,1.68-.02,2.39-.03,2.12-.06,3.4.36,4.15.43.76,1.79.72,3.24.66,1.73-.06,3.51-.13,4.36,1.12.56.82.54,2.08.51,4.34,0,.66-.03,1.41-.02,2.25,0,.28-.1.32-.25.32,0,0-.07,0-.07,0Z"/>
        <g>
          <path class="cls-1" d="m4.5,8.71c-.06,0-.11-.05-.11-.11v-.04c0-.06.05-.11.11-.11s.11.05.11.11v.04c0,.06-.05.11-.11.11Z"/>
          <path class="cls-1" d="m4.5,10.51c-.06,0-.11-.05-.11-.11v-.08c0-.06.05-.11.11-.11s.11.05.11.11v.08c0,.06-.05.11-.11.11Zm0-.9c-.06,0-.11-.05-.11-.11v-.08c0-.06.05-.11.11-.11s.11.05.11.11v.08c0,.06-.05.11-.11.11Z"/>
          <path class="cls-1" d="m4.5,11.37c-.06,0-.11-.05-.11-.11v-.04c0-.06.05-.11.11-.11s.11.05.11.11v.04c0,.06-.05.11-.11.11Z"/>
        </g>
        <g>
          <path class="cls-1" d="m8.91,15.43h0s-8.68,0-8.68,0c-.05,0,3-2.41,4.02-3.24.2-.16.49-.16.7,0l3.97,3.23Z"/>
          <path class="cls-1" d="m.15,15.56v-.03s-.02-.05-.02-.05c-.02-.06.71-.68,2.19-1.86.73-.58,1.45-1.16,1.86-1.49.24-.19.58-.19.82,0l4.07,3.27-.03.15h-.15l-8.72.02h-.04Zm4.45-3.38c-.1,0-.19.03-.28.1-.41.33-1.13.91-1.86,1.49-.74.59-1.56,1.24-1.93,1.55h8.11l-3.74-3.05c-.09-.07-.18-.11-.28-.11h0Z"/>
        </g>
        <path class="cls-1" d="m.02,12.96c-.04-2.05-.06-2.98.47-3.75.76-1.12,2.11-1.38,3.94-1.44h0c.06,0,.11.05.11.11s-.05.11-.11.11c-1.76.06-3.06.31-3.76,1.35-.48.72-.47,1.63-.43,3.63,0,.71.05,1.51.03,2.49,0,.11-.05.11-.11.11h0c-.06,0-.11.02-.11-.11"/>
        <path class="cls-1" d="m4.81,8.05c-.06,0-.11-.05-.11-.11s.05-.11.11-.11c1.74-.06,3.04-.32,3.73-1.4.51-.79.49-1.8.48-4.05,0-.64,0-1.38,0-2.24,0-.14,0-.13.11-.13h0q.11,0,.11.13c0,.86,0,1.6,0,2.24.03,2.29.04,3.34-.5,4.17-.75,1.15-2.1,1.43-3.9,1.49h-.02Z"/>
        <path class="cls-2" d="m7.66,1.48H.74c-.16,0-.25-.11-.25-.24s.11-.24.25-.24h6.93c.14,0,.25.11.25.24s-.12.24-.25.24h0Z"/>
        <path class="cls-2" d="m6.59,2.74H.7c-.14,0-.21-.11-.21-.24s.09-.24.21-.24h5.9c.12,0,.21.11.21.24s-.1.24-.21.24Z"/>
        <path class="cls-2" d="m5.84,4.07H.71c-.12,0-.22-.11-.22-.24s.12-.24.22-.24h5.11c.11,0,.22.11.22.24s-.11.24-.21.24h0Z"/>
        <path class="cls-2" d="m4.83,5.42H.72c-.11,0-.22-.11-.22-.24s.12-.24.22-.24h4.11c.13,0,.22.11.22.24s-.1.24-.22.24Z"/>
        <path class="cls-2" d="m3.78,6.76H.82c-.11,0-.22-.11-.22-.24s.11-.24.23-.24h2.96c.11,0,.21.11.21.24s-.11.24-.22.24Z"/>
      </g>
    </g>
  </g>
</svg>