<?xml version="1.0" encoding="UTF-8"?>
<svg id="Ebene_2" data-name="Ebene 2" xmlns="http://www.w3.org/2000/svg" viewBox="0 0 15.35 15.69">
  <defs>
    <style>
      .cls-1, .cls-2, .cls-3 {
        fill: #cb0767;
      }

      .cls-4 {
        fill: #436eee;
      }

      .cls-2 {
        stroke: #436eee;
        stroke-miterlimit: 10;
        stroke-width: .25px;
      }

      .cls-2, .cls-3 {
        stroke-linecap: round;
      }

      .cls-3 {
        stroke: #cb0767;
        stroke-linejoin: round;
        stroke-width: .5px;
      }
    </style>
  </defs>
  <g id="Ebene_1-2" data-name="Ebene 1">
    <g>
      <path class="cls-4" d="m5.27,12.38L.21,10.6c-.05-.02-.08-.06-.08-.12v-.2c0-.05.03-.1.08-.12l5.06-1.78s.03,0,.04,0c.03,0,.05,0,.07.02.03.02.05.06.05.1v.58c0,.05-.03.1-.08.12l-1.07.36-.06,1.55c0,.05.04.1.09.12l1.04.34c.05.02.09.06.09.12v.58s-.02.08-.05.1c-.02.02-.05.02-.07.02-.01,0-.03,0-.04,0Zm-1.86-2.53l-1.5.5,1.5.56.07-1.03-.05-.03v-.12l-.02.13Z"/>
      <path class="cls-4" d="m5.31,8.5v.58l-1.07.36c-.09.03-.14.1-.14.19v1.48c0,.1.07.2.18.23l1.04.34v.58L.25,10.48c0-.1,0-.1,0-.2l5.06-1.78m-1.89,2.54c.09,0,.17-.07.17-.16v-1c0-.09-.08-.16-.17-.16-.02,0-.04,0-.06,0l-1.5.5c-.15.05-.15.25,0,.3l1.5.5s.04,0,.06,0m1.89-2.79s-.06,0-.08.01L.17,10.05C.07,10.08,0,10.17,0,10.28v.1s0,.1,0,.1c0,.11.07.2.17.24l5.06,1.78s.06.01.08.01c.05,0,.1-.02.14-.05.07-.05.11-.12.11-.2v-.58c0-.11-.07-.2-.17-.24l-1.04-.34v-1.43s1.04-.35,1.04-.35c.1-.03.17-.13.17-.24v-.58c0-.08-.04-.16-.11-.2-.04-.03-.09-.05-.14-.05h0Zm-3.1,2.13l1.13-.38v.76l-1.13-.38h0Z"/>
    </g>
    <path class="cls-3" d="m5.31,12.85v.45h-2.33v1.7h2.33v.44H.26v-.44h2.17v-1.7H.26v-.45h5.05Z"/>
    <g>
      <g>
        <path class="cls-4" d="m.26,3.65c-.07,0-.12-.06-.12-.12v-.56c0-.06.04-.11.09-.12l3.71-.97L.23.93c-.06-.01-.09-.06-.09-.12V.25c0-.07.06-.12.12-.12h5.05c.07,0,.12.06.12.12v.43c0,.07-.06.12-.12.12h-1.96l-1.08-.02,3.08.82c.05.01.09.06.09.12v.33c0,.06-.04.11-.09.12l-3.07.81,1.07-.02h1.97c.07,0,.12.06.12.12v.43c0,.07-.06.12-.12.12H.26Z"/>
        <path class="cls-4" d="m5.31.25v.43h-1.97l-2.12-.04,4.09,1.08v.33c-1.36.36-2.72.72-4.08,1.08l2.11-.04h1.97v.43H.26v-.56l3.71-.97c.12-.03.12-.18,0-.21L.26.81V.25h5.05m0-.25H.26C.13,0,.01.11.01.25v.56c0,.11.08.21.19.24l3.19.83L.2,2.72c-.11.03-.19.13-.19.24v.56c0,.14.11.25.25.25h5.05c.14,0,.25-.11.25-.25v-.43c0-.14-.11-.25-.25-.25h-1.99s.36-.09.36-.09l1.7-.45c.11-.03.19-.13.19-.24v-.33c0-.11-.08-.21-.19-.24l-2.08-.55h.04s1.97,0,1.97,0c.14,0,.25-.11.25-.25v-.43c0-.14-.11-.25-.25-.25h0Z"/>
      </g>
      <g>
        <path class="cls-4" d="m5.27,8.01L.21,6.23c-.05-.02-.08-.06-.08-.12v-.2c0-.05.03-.1.08-.12l5.06-1.78s.03,0,.04,0c.03,0,.05,0,.07.02.03.02.05.06.05.1v.58c0,.05-.03.1-.08.12l-1.07.36-.06,1.55c0,.05.04.1.09.12l1.04.34c.05.02.09.06.09.12v.58s-.02.08-.05.1c-.02.02-.05.02-.07.02-.01,0-.03,0-.04,0Zm-1.86-2.53l-1.5.5,1.5.56.06-1.03-.05-.03v-.12l-.02.13Z"/>
        <path class="cls-4" d="m5.31,4.13v.58l-1.07.36c-.09.03-.14.1-.14.19v1.48c0,.1.07.2.18.23l1.04.34v.58L.26,6.11c0-.1,0-.1,0-.2l5.06-1.78m-1.89,2.54c.09,0,.17-.07.17-.16v-1c0-.09-.08-.16-.17-.16-.02,0-.04,0-.06,0l-1.5.5c-.15.05-.15.25,0,.3l1.5.5s.04,0,.06,0m1.89-2.79s-.06,0-.08.01L.17,5.68c-.1.04-.17.13-.17.24v.17c0,.11.07.23.17.26l5.06,1.78s.06.01.08.01c.05,0,.1-.02.14-.05.07-.05.11-.12.11-.2v-.58c0-.11-.07-.2-.17-.24l-1.04-.34v-1.43s1.04-.35,1.04-.35c.1-.03.17-.13.17-.24v-.58c0-.08-.04-.16-.11-.2-.04-.03-.09-.05-.14-.05h0Zm-3.1,2.13l1.13-.38v.76l-1.13-.38h0Z"/>
      </g>
      <g id="Ebene_1-2" data-name="Ebene 1-2">
        <g>
          <path class="cls-4" d="m15,15.57c-.17,0-.32,0-.32-.32,0-.85,0-1.6.02-2.26.03-2.13.05-3.32-.4-3.97-.66-.96-2.27-.9-3.82-.84-1.64.06-3.19.12-3.81-.99-.49-.89-.48-2.24-.45-4.47,0-.7.03-1.48.02-2.38,0-.35.15-.32.32-.32h0c.17,0,.33,0,.32.32,0,.89,0,1.68-.02,2.39-.03,2.12-.06,3.4.36,4.15.43.76,1.79.72,3.24.66,1.73-.06,3.51-.13,4.36,1.12.56.82.54,2.08.51,4.34,0,.66-.03,1.41-.02,2.25,0,.28-.1.32-.25.32,0,0-.07,0-.07,0Z"/>
          <g>
            <path class="cls-4" d="m10.59,8.73c-.06,0-.11-.05-.11-.11v-.04c0-.06.05-.11.11-.11s.11.05.11.11v.04c0,.06-.05.11-.11.11Z"/>
            <path class="cls-4" d="m10.59,10.54c-.06,0-.11-.05-.11-.11v-.08c0-.06.05-.11.11-.11s.11.05.11.11v.08c0,.06-.05.11-.11.11Zm0-.9c-.06,0-.11-.05-.11-.11v-.08c0-.06.05-.11.11-.11s.11.05.11.11v.08c0,.06-.05.11-.11.11Z"/>
            <path class="cls-4" d="m10.59,11.39c-.06,0-.11-.05-.11-.11v-.04c0-.06.05-.11.11-.11s.11.05.11.11v.04c0,.06-.05.11-.11.11Z"/>
          </g>
          <g>
            <path class="cls-1" d="m15.01,15.45h0s-8.68,0-8.68,0c-.05,0,3-2.41,4.02-3.24.2-.16.49-.16.7,0l3.97,3.23Z"/>
            <path class="cls-4" d="m6.28,15.57l-.02-.02-.03-.05c-.02-.06.71-.68,2.19-1.86.73-.58,1.45-1.16,1.86-1.49.24-.19.58-.19.82,0l4.07,3.27-.03.15H6.27s0,0,0,0Zm4.42-3.37c-.1,0-.19.03-.28.1-.41.33-1.13.91-1.86,1.49-.74.59-1.56,1.24-1.93,1.55h8.11l-3.74-3.05c-.09-.07-.18-.11-.28-.11h0Z"/>
          </g>
          <path class="cls-4" d="m6.11,12.98c-.04-2.05-.06-2.98.47-3.75.76-1.12,2.11-1.38,3.94-1.44h0c.06,0,.11.05.11.11s-.05.11-.11.11c-1.76.06-3.06.31-3.76,1.35-.48.72-.47,1.63-.43,3.63,0,.71.05,1.51.03,2.49,0,.11-.05.11-.11.11h0c-.06,0-.11.02-.11-.11"/>
          <path class="cls-4" d="m10.9,8.07c-.06,0-.11-.05-.11-.11s.05-.11.11-.11c1.74-.06,3.04-.32,3.73-1.4.51-.79.49-1.8.48-4.05,0-.64,0-1.38,0-2.24,0-.14,0-.13.11-.13h0q.11,0,.11.13c0,.86,0,1.6,0,2.24.03,2.29.04,3.34-.5,4.17-.75,1.15-2.1,1.43-3.9,1.49h-.02Z"/>
          <path class="cls-2" d="m13.76,1.51h-6.92c-.16,0-.25-.11-.25-.24s.11-.24.25-.24h6.93c.14,0,.25.11.25.24s-.12.24-.25.24h0Z"/>
          <path class="cls-2" d="m12.69,2.76h-5.9c-.14,0-.21-.11-.21-.24s.09-.24.21-.24h5.9c.12,0,.21.11.21.24s-.1.24-.21.24Z"/>
          <path class="cls-2" d="m11.93,4.1h-5.13c-.12,0-.22-.11-.22-.24s.12-.24.22-.24h5.11c.11,0,.22.11.22.24s-.11.24-.21.24h0Z"/>
          <path class="cls-2" d="m10.92,5.44h-4.11c-.11,0-.22-.11-.22-.24s.12-.24.22-.24h4.11c.13,0,.22.11.22.24s-.1.24-.22.24Z"/>
          <path class="cls-2" d="m9.88,6.78h-2.96c-.11,0-.22-.11-.22-.24s.11-.24.23-.24h2.96c.11,0,.21.11.21.24s-.11.24-.22.24Z"/>
        </g>
      </g>
    </g>
  </g>
</svg>