<?xml version="1.0" encoding="UTF-8"?>
<svg id="Ebene_2" data-name="Ebene 2" xmlns="http://www.w3.org/2000/svg" viewBox="0 0 9.73 16.04">
  <defs>
    <style>
      .cls-1 {
        stroke: #fff;
        stroke-linecap: round;
        stroke-miterlimit: 10;
        stroke-width: .25px;
      }

      .cls-1, .cls-2 {
        fill: #cb0767;
      }

      .cls-3 {
        fill: #fff;
      }

      .cls-4 {
        fill: #436eee;
      }
    </style>
  </defs>
  <g id="Ebene_1-2" data-name="Ebene 1">
    <g>
      <path class="cls-3" d="m9.71,13.28c0,.67-.03,1.44-.02,2.3,0,.26-.12.33-.29.33l.03-.16-.4-.32c0-.8,0-1.52.02-2.17.03-2.19.05-3.39-.41-4.05-.69-.98-2.37-.92-3.98-.86-.63.03-1.25.04-1.82,0,.55-.11.07-.29-.63-.07h0c-.68-.12-1.22-.39-1.53-.93C.15,6.42.18,5.05.21,2.76c0-.71.03-1.52.02-2.42C.23-.03.38,0,.57,0h.03c.17,0,.31,0,.3.33,0,.24,0,.47,0,.69h-.04c-.15,0-.26.11-.26.26,0,.13.1.25.26.25h.04c0,.26,0,.53,0,.78h-.07c-.13,0-.22.11-.22.26,0,.13.08.25.22.25h.07c0,.31,0,.6,0,.87h-.05c-.11,0-.23.11-.23.25,0,.14.11.26.23.26h.04c0,.32,0,.61.02.87h-.05c-.11,0-.23.11-.23.25s.12.25.23.25h.07c.03.33.07.62.13.87h-.07c-.13,0-.25.11-.25.26,0,.13.11.25.23.25h.27s.03.06.04.1c.44.78,1.87.73,3.38.68.88-.03,1.77-.06,2.56.06-.6.17-.25.36.46.11.63.16,1.15.46,1.52.98.59.84.57,2.12.54,4.44Z"/>
      <path class="cls-4" d="m.87,3.68c0,.18,0,.34,0,.5h-.04c-.11,0-.23-.11-.23-.26,0-.13.12-.25.23-.25h.05Z"/>
      <path class="cls-4" d="m.87,2.3v.5h-.07c-.14,0-.22-.11-.22-.25,0-.14.09-.26.22-.26h.07Z"/>
      <path class="cls-4" d="m.88,1.02v.5h-.04c-.16,0-.26-.11-.26-.25,0-.14.11-.26.26-.26h.04Z"/>
      <path class="cls-4" d="m.89,5.54h-.07c-.11,0-.23-.11-.23-.25s.12-.25.23-.25h.05c0,.18,0,.33.02.49Z"/>
      <path class="cls-4" d="m1.21,6.92h-.27c-.11,0-.23-.11-.23-.25,0-.14.11-.26.25-.26h.07c.04.19.11.35.19.5Z"/>
      <path class="cls-4" d="m7.65,7.86c-.71.26-1.06.06-.46-.11.16.03.31.06.46.11Z"/>
      <path class="cls-4" d="m9.43,15.76l-.03.16h-.04s-.09,0-.13,0c-.06,0-.12-.04-.15-.11-.03-.04-.04-.11-.04-.22v-.14l.4.32Z"/>
      <g>
        <path class="cls-3" d="m4.77,8.91c-.06,0-.11-.05-.11-.11v-.04c0-.06.05-.11.11-.11s.11.05.11.11v.04c0,.06-.05.11-.11.11Z"/>
        <path class="cls-3" d="m4.77,10.76c-.06,0-.11-.05-.11-.11v-.08c0-.06.05-.11.11-.11s.11.05.11.11v.08c0,.06-.05.11-.11.11Zm0-.92c-.06,0-.11-.05-.11-.11v-.08c0-.06.05-.11.11-.11s.11.05.11.11v.08c0,.06-.05.11-.11.11Z"/>
        <path class="cls-3" d="m4.77,11.64c-.06,0-.11-.05-.11-.11v-.04c0-.06.05-.11.11-.11s.11.05.11.11v.04c0,.06-.05.11-.11.11Z"/>
      </g>
      <g>
        <path class="cls-2" d="m9.3,15.79s0,.01,0,.01H.24c-.05,0,3.12-2.46,4.19-3.31.21-.17.51-.17.73,0l4.14,3.3Z"/>
        <g>
          <path class="cls-3" d="m9.07,15.79s.04-.04.05-.06c.01-.04,0-.08-.02-.12l.26.14-.03.04h-.27ZM.27,15.79s.08-.06.15-.12c0,.02,0,.05,0,.07,0,.02.02.04.04.05h-.19Z"/>
          <path class="cls-3" d="m4.8,12.25c-.15,0-.3.05-.43.15-.42.34-1.18.94-1.94,1.53-1.23.96-1.82,1.41-2.08,1.63-.18.15-.21.2-.22.24,0,0,0,.06.01.08.02.03.05.04.05.04h9.22l.14-.21-.51-.26-3.81-3.03c-.13-.11-.28-.16-.43-.16h0ZM.54,15.7c.4-.32,1.24-.99,2.02-1.59.76-.6,1.52-1.19,1.95-1.53.09-.07.19-.11.29-.11s.21.04.3.11l3.9,3.11H.54Z"/>
        </g>
      </g>
      <path class="cls-3" d="m2.84,8.36h-.02c-.91.19-1.6.53-2.06,1.19-.5.73-.48,1.67-.45,3.71.02.66.04,1.41.04,2.31v.24c0,.11-.05.11-.11.11h-.04s-.02,0-.03,0h0s-.03-.06-.03-.06c0,0,0-.02,0-.04l-.04-2.54c-.04-2.1-.06-3.05.48-3.84.4-.57.94-.93,1.63-1.14h0c.7-.22,1.49-.12.63.07Z"/>
      <path class="cls-3" d="m9.17,6.72c-.37.56-.88.92-1.52,1.15-.18.07-.44.17-.56.19-.31.04-.37-.13-.1-.25.05-.02.13-.02.2-.04.77-.21,1.37-.55,1.79-1.16.53-.8.52-1.85.49-4.14,0-.65-.02-1.41-.02-2.29,0-.14,0-.12.11-.12h.04c.08,0,.07,0,.07.12,0,.88,0,1.63.02,2.29.03,2.34.04,3.41-.53,4.27Z"/>
      <path class="cls-1" d="m8.34,1.28c0,.13-.12.25-.26.25H.84c-.16,0-.26-.11-.26-.25,0-.14.11-.26.26-.26h7.24c.14,0,.26.11.26.26Z"/>
      <path class="cls-1" d="m7.18,2.56c0,.13-.11.25-.23.25H.8c-.14,0-.22-.11-.22-.25,0-.14.09-.26.22-.26h6.15c.12,0,.23.11.23.26Z"/>
      <path class="cls-1" d="m6.38,3.92c0,.14-.11.26-.22.26H.81c-.11,0-.23-.11-.23-.26,0-.13.12-.25.23-.25h5.34c.11,0,.23.11.23.25Z"/>
      <path class="cls-1" d="m5.34,5.3c0,.14-.1.25-.23.25H.82c-.11,0-.23-.11-.23-.25s.12-.25.23-.25h4.29c.12,0,.23.11.23.25Z"/>
      <path class="cls-1" d="m4.26,6.67c0,.13-.11.25-.24.25H.94c-.11,0-.23-.11-.23-.25,0-.14.11-.26.25-.26h3.08c.11,0,.22.11.22.26Z"/>
    </g>
  </g>
</svg>