<?xml version="1.0" encoding="UTF-8" standalone="no"?>
<!-- Created with Inkscape (http://www.inkscape.org/) -->

<svg
   width="100mm"
   height="98mm"
   viewBox="0 0 100 98"
   version="1.1"
   id="svg1"
   inkscape:version="1.3 (0e150ed, 2023-07-21)"
   sodipodi:docname="Logo_HAAM_Meeting_Blue_v1.0.svg"
   xmlns:inkscape="http://www.inkscape.org/namespaces/inkscape"
   xmlns:sodipodi="http://sodipodi.sourceforge.net/DTD/sodipodi-0.dtd"
   xmlns="http://www.w3.org/2000/svg"
   xmlns:svg="http://www.w3.org/2000/svg">
  <sodipodi:namedview
     id="namedview1"
     pagecolor="#ffffff"
     bordercolor="#000000"
     borderopacity="0.25"
     inkscape:showpageshadow="2"
     inkscape:pageopacity="0.0"
     inkscape:pagecheckerboard="0"
     inkscape:deskcolor="#d1d1d1"
     inkscape:document-units="mm"
     inkscape:zoom="0.36728768"
     inkscape:cx="200.11561"
     inkscape:cy="378.44994"
     inkscape:window-width="1440"
     inkscape:window-height="777"
     inkscape:window-x="0"
     inkscape:window-y="30"
     inkscape:window-maximized="1"
     inkscape:current-layer="layer1" />
  <defs
     id="defs1">
    <clipPath
       clipPathUnits="userSpaceOnUse"
       id="clipath_lpe_path-effect55">
      <path
         id="path55"
         style="display:none;fill:none;stroke:#000000;stroke-width:2;stroke-linecap:round;stroke-miterlimit:7.5;stroke-dasharray:none"
         d="m 167.04769,-114.56769 a 7.723282,2.4342783 73.837766 0 0 -0.52814,7.56131 7.723282,2.4342783 73.837766 0 0 4.46071,7.334941 7.723282,2.4342783 73.837766 0 0 0.52814,-7.560771 7.723282,2.4342783 73.837766 0 0 -4.46071,-7.33548 z m 21.74958,9.42269 a 2.4342784,7.723282 61.488676 0 0 -5.91954,1.8495 2.4342784,7.723282 61.488676 0 0 -6.21151,5.926248 2.4342784,7.723282 61.488676 0 0 7.49877,-1.101222 2.4342784,7.723282 61.488676 0 0 6.2115,-5.926256 2.4342784,7.723282 61.488676 0 0 -1.57922,-0.74827 z m 7.88426,9.699666 a 2.4342783,7.723282 38.211343 0 0 -5.58622,4.285004 2.4342783,7.723282 38.211343 0 0 -3.36414,7.898228 2.4342783,7.723282 38.211343 0 0 6.45336,-3.974947 2.4342783,7.723282 38.211343 0 0 3.36413,-7.898233 2.4342783,7.723282 38.211343 0 0 -0.86713,-0.310052 z m -67.82996,10.531655 a 7.723282,2.4342784 34.834118 0 0 -1.06609,0.29197 7.723282,2.4342784 34.834118 0 0 4.34857,6.208406 7.723282,2.4342784 34.834118 0 0 8.08271,2.892848 7.723282,2.4342784 34.834118 0 0 -4.34805,-6.208405 7.723282,2.4342784 34.834118 0 0 -7.01714,-3.184819 z m 61.60554,7.264157 a 7.7232817,2.4342784 25.862253 0 0 -1.52187,0.492474 7.7232817,2.4342784 25.862253 0 0 5.26324,5.45393 7.7232817,2.4342784 25.862253 0 0 8.43515,1.596803 7.7232817,2.4342784 25.862253 0 0 -5.26325,-5.45393 7.7232817,2.4342784 25.862253 0 0 -6.91327,-2.089277 z m -49.87965,7.852232 a 2.4342783,7.723282 47.183209 0 0 -6.1867,3.361034 2.4342783,7.723282 47.183209 0 0 -4.55424,7.277595 2.4342783,7.723282 47.183209 0 0 6.9944,-2.920238 2.4342783,7.723282 47.183209 0 0 4.55425,-7.277074 2.4342783,7.723282 47.183209 0 0 -0.80771,-0.441317 z m 48.17174,7.379394 a 7.723282,2.4342784 5.2495807 0 0 -5.49527,2.00298 7.723282,2.4342784 5.2495807 0 0 8.04654,2.99103 7.723282,2.4342784 5.2495807 0 0 7.32461,-1.949752 7.723282,2.4342784 5.2495807 0 0 -8.04705,-2.991548 7.723282,2.4342784 5.2495807 0 0 -1.82883,-0.05271 z m -9.68571,5.827551 a 7.723282,2.4342784 82.900492 0 0 -0.2899,0.05064 7.723282,2.4342784 82.900492 0 0 -1.20148,8.500774 7.723282,2.4342784 82.900492 0 0 3.4711,6.737572 7.723282,2.4342784 82.900492 0 0 1.20148,-8.500772 7.723282,2.4342784 82.900492 0 0 -3.1812,-6.788218 z m -27.89029,1.250571 a 2.4342783,7.7232814 67.926909 0 0 -5.51801,1.206127 2.4342783,7.7232814 67.926909 0 0 -6.83679,5.191932 2.4342783,7.7232814 67.926909 0 0 7.57524,-0.253217 2.4342783,7.7232814 67.926909 0 0 6.8368,-5.192445 2.4342783,7.7232814 67.926909 0 0 -2.05724,-0.952397 z m 8.13594,2.932637 a 7.7232814,2.4342784 80.276001 0 0 -1.37253,7.454325 7.7232814,2.4342784 80.276001 0 0 3.61012,7.789188 7.7232814,2.4342784 80.276001 0 0 1.37253,-7.454323 7.7232814,2.4342784 80.276001 0 0 -3.61012,-7.78919 z" />
      <path
         id="lpe_path-effect55"
         style="fill:none;stroke:#000000;stroke-width:2;stroke-linecap:round;stroke-miterlimit:7.5;stroke-dasharray:none"
         class="powerclip"
         d="m 131.181,-109.37116 h 66.78903 v 66.78903 H 131.181 Z m 35.86669,-5.19653 a 7.723282,2.4342783 73.837766 0 0 -0.52814,7.56131 7.723282,2.4342783 73.837766 0 0 4.46071,7.334941 7.723282,2.4342783 73.837766 0 0 0.52814,-7.560771 7.723282,2.4342783 73.837766 0 0 -4.46071,-7.33548 z m 21.74958,9.42269 a 2.4342784,7.723282 61.488676 0 0 -5.91954,1.8495 2.4342784,7.723282 61.488676 0 0 -6.21151,5.926248 2.4342784,7.723282 61.488676 0 0 7.49877,-1.101222 2.4342784,7.723282 61.488676 0 0 6.2115,-5.926256 2.4342784,7.723282 61.488676 0 0 -1.57922,-0.74827 z m 7.88426,9.699666 a 2.4342783,7.723282 38.211343 0 0 -5.58622,4.285004 2.4342783,7.723282 38.211343 0 0 -3.36414,7.898228 2.4342783,7.723282 38.211343 0 0 6.45336,-3.974947 2.4342783,7.723282 38.211343 0 0 3.36413,-7.898233 2.4342783,7.723282 38.211343 0 0 -0.86713,-0.310052 z m -67.82996,10.531655 a 7.723282,2.4342784 34.834118 0 0 -1.06609,0.29197 7.723282,2.4342784 34.834118 0 0 4.34857,6.208406 7.723282,2.4342784 34.834118 0 0 8.08271,2.892848 7.723282,2.4342784 34.834118 0 0 -4.34805,-6.208405 7.723282,2.4342784 34.834118 0 0 -7.01714,-3.184819 z m 61.60554,7.264157 a 7.7232817,2.4342784 25.862253 0 0 -1.52187,0.492474 7.7232817,2.4342784 25.862253 0 0 5.26324,5.45393 7.7232817,2.4342784 25.862253 0 0 8.43515,1.596803 7.7232817,2.4342784 25.862253 0 0 -5.26325,-5.45393 7.7232817,2.4342784 25.862253 0 0 -6.91327,-2.089277 z m -49.87965,7.852232 a 2.4342783,7.723282 47.183209 0 0 -6.1867,3.361034 2.4342783,7.723282 47.183209 0 0 -4.55424,7.277595 2.4342783,7.723282 47.183209 0 0 6.9944,-2.920238 2.4342783,7.723282 47.183209 0 0 4.55425,-7.277074 2.4342783,7.723282 47.183209 0 0 -0.80771,-0.441317 z m 48.17174,7.379394 a 7.723282,2.4342784 5.2495807 0 0 -5.49527,2.00298 7.723282,2.4342784 5.2495807 0 0 8.04654,2.99103 7.723282,2.4342784 5.2495807 0 0 7.32461,-1.949752 7.723282,2.4342784 5.2495807 0 0 -8.04705,-2.991548 7.723282,2.4342784 5.2495807 0 0 -1.82883,-0.05271 z m -9.68571,5.827551 a 7.723282,2.4342784 82.900492 0 0 -0.2899,0.05064 7.723282,2.4342784 82.900492 0 0 -1.20148,8.500774 7.723282,2.4342784 82.900492 0 0 3.4711,6.737572 7.723282,2.4342784 82.900492 0 0 1.20148,-8.500772 7.723282,2.4342784 82.900492 0 0 -3.1812,-6.788218 z m -27.89029,1.250571 a 2.4342783,7.7232814 67.926909 0 0 -5.51801,1.206127 2.4342783,7.7232814 67.926909 0 0 -6.83679,5.191932 2.4342783,7.7232814 67.926909 0 0 7.57524,-0.253217 2.4342783,7.7232814 67.926909 0 0 6.8368,-5.192445 2.4342783,7.7232814 67.926909 0 0 -2.05724,-0.952397 z m 8.13594,2.932637 a 7.7232814,2.4342784 80.276001 0 0 -1.37253,7.454325 7.7232814,2.4342784 80.276001 0 0 3.61012,7.789188 7.7232814,2.4342784 80.276001 0 0 1.37253,-7.454323 7.7232814,2.4342784 80.276001 0 0 -3.61012,-7.78919 z" />
    </clipPath>
    <inkscape:path-effect
       effect="powerclip"
       id="path-effect55"
       is_visible="true"
       lpeversion="1"
       inverse="true"
       flatten="false"
       hide_clip="false"
       message="Use fill-rule evenodd on &lt;b&gt;fill and stroke&lt;/b&gt; dialogue if no flatten result after convert clip to paths." />
  </defs>
  <g
     inkscape:label="Layer 1"
     inkscape:groupmode="layer"
     id="layer1">
    <g
       id="g54"
       style="display:inline;stroke:#436eee;stroke-opacity:1"
       transform="translate(-224.99693,138.90626)">
      <path
         style="display:inline;fill:none;stroke:#436eee;stroke-width:2.5;stroke-linecap:round;stroke-miterlimit:7.5;stroke-dasharray:none;stroke-opacity:1"
         id="path6"
         inkscape:export-filename="Logo_HAAM_meeting_v1.0.png"
         inkscape:export-xdpi="1200"
         inkscape:export-ydpi="1200"
         clip-path="url(#clipath_lpe_path-effect55)"
         inkscape:path-effect="#path-effect55"
         sodipodi:type="arc"
         sodipodi:cx="164.57552"
         sodipodi:cy="-75.976646"
         sodipodi:rx="27.144516"
         sodipodi:ry="27.144516"
         d="m 191.72003,-75.976646 a 27.144516,27.144516 0 0 1 -27.14451,27.144516 27.144516,27.144516 0 0 1 -27.14452,-27.144516 27.144516,27.144516 0 0 1 27.14452,-27.144514 27.144516,27.144516 0 0 1 27.14451,27.144514 z"
         transform="translate(111.08701,-12.963606)" />
      <a
         id="a24"
         inkscape:export-filename="/home/tina/Desktop/HAAM_community/Logo_With_HAAM_Blue_mastodon.png"
         inkscape:export-xdpi="1200"
         inkscape:export-ydpi="1200"
         style="display:inline;stroke:#436eee;stroke-opacity:1"
         transform="matrix(1.7240683,0,0,1.7240683,248.82216,-117.64632)">
        <g
           transform="translate(7.9701534,8.0862518)"
           inkscape:export-ydpi="900"
           inkscape:export-xdpi="900"
           inkscape:export-filename="/home/tina/Desktop/HAAM_community/Logo_With_HAAM_Blue.png"
           data-name="Ebene 1"
           id="g24"
           style="stroke:#436eee;stroke-opacity:1">
          <path
             style="fill:#436eee;fill-opacity:1;stroke:#436eee;stroke-width:0.5px;stroke-linecap:round;stroke-linejoin:round;stroke-opacity:1"
             inkscape:connector-curvature="0"
             id="path8"
             d="m 4.1,10.375371 v 1.48 c 0,0.1 0.07,0.2 0.18,0.23 l 1.04,0.34 v 0.58 l -5.06,-1.78 v -0.2 c 0,0 5.06,-1.7800005 5.06,-1.7800005 v 0.58 L 4.25,10.185371 c -0.09,0.03 -0.14,0.1 -0.14,0.19 z m -0.5,1.25 v -1 c 0,-0.11 -0.12,-0.19 -0.23,-0.15 l -1.5,0.5 c -0.15,0.05 -0.15,0.25 0,0.3 l 1.5,0.5 c 0.11,0.04 0.23,-0.04 0.23,-0.15 z"
             class="cls-3" />
          <path
             style="fill:#436eee;fill-opacity:1;stroke:#436eee;stroke-width:0.5px;stroke-linecap:round;stroke-linejoin:round;stroke-opacity:1"
             inkscape:connector-curvature="0"
             id="path10"
             d="M 0.26,2.97 3.97,2 C 4.09,1.97 4.09,1.82 3.97,1.79 L 0.26,0.81 V 0.25 H 5.31 V 0.68 H 3.34 L 1.22,0.64 5.31,1.72 V 2.05 C 3.95,2.41 2.59,2.77 1.23,3.13 L 3.34,3.09 H 5.31 V 3.52 H 0.26 V 2.96 Z"
             class="cls-3" />
          <path
             style="fill:#436eee;fill-opacity:1;stroke:#436eee;stroke-width:0.5px;stroke-linecap:round;stroke-linejoin:round;stroke-opacity:1"
             inkscape:connector-curvature="0"
             id="path12"
             d="m 5.31,13.988061 v 0.45 H 2.98 v 1.7 h 2.33 v 0.44 H 0.26 v -0.44 h 2.17 v -1.7 H 0.26 v -0.45 z"
             class="cls-3" />
          <path
             style="fill:#436eee;fill-opacity:1;stroke:#436eee;stroke-width:0.5px;stroke-linecap:round;stroke-linejoin:round;stroke-opacity:1"
             inkscape:connector-curvature="0"
             id="path14"
             d="m 4.1,5.6326904 v 1.48 c 0,0.1 0.07,0.2 0.18,0.23 l 1.04,0.34 v 0.58 l -5.06,-1.78 v -0.2 c 0,0 5.06,-1.78 5.06,-1.78 v 0.58 l -1.07,0.36 c -0.09,0.03 -0.14,0.1 -0.14,0.19 z m -0.5,1.25 v -1 c 0,-0.11 -0.12,-0.19 -0.23,-0.15 l -1.5,0.5 c -0.15,0.05 -0.15,0.25 0,0.3 l 1.5,0.5 c 0.11,0.04 0.23,-0.04 0.23,-0.15 z"
             class="cls-3" />
          <g
             data-name="Ebene 1-2"
             id="g14"
             style="stroke:#436eee;stroke-opacity:1" />
          <g
             data-name="Ebene 1-2"
             id="g19"
             transform="matrix(0.91379325,0,0,0.91379325,0.92905158,0.94825158)"
             style="fill:#436eee;fill-opacity:1;stroke:#436eee;stroke-opacity:1">
            <g
               id="g18"
               transform="matrix(0.91194983,0,0,0.91194983,0.87049533,0.96852862)"
               style="fill:#436eee;fill-opacity:1;stroke:#436eee;stroke-opacity:1">
              <g
                 id="g17"
                 transform="matrix(1.0839262,0,0,1.0839262,6.1398718,0.0201412)"
                 style="fill:#436eee;fill-opacity:1;stroke:#436eee;stroke-opacity:1">
                <circle
                   style="fill:#436eee;fill-opacity:1;stroke:#436eee;stroke-width:0;stroke-linecap:round;stroke-linejoin:round;stroke-miterlimit:7.5;stroke-dasharray:none;stroke-opacity:1"
                   id="circle14"
                   cx="4.3574357"
                   cy="11.775326"
                   r="0.3057923" />
                <circle
                   style="fill:#436eee;fill-opacity:1;stroke:#436eee;stroke-width:0;stroke-linecap:round;stroke-linejoin:round;stroke-miterlimit:7.5;stroke-dasharray:none;stroke-opacity:1"
                   id="circle15"
                   cx="4.3574357"
                   cy="10.674009"
                   r="0.3057923" />
                <circle
                   style="fill:#436eee;fill-opacity:1;stroke:#436eee;stroke-width:0;stroke-linecap:round;stroke-linejoin:round;stroke-miterlimit:7.5;stroke-dasharray:none;stroke-opacity:1"
                   id="circle16"
                   cx="4.3574357"
                   cy="9.5726938"
                   r="0.3057923" />
                <circle
                   style="fill:#436eee;fill-opacity:1;stroke:#436eee;stroke-width:0;stroke-linecap:round;stroke-linejoin:round;stroke-miterlimit:7.5;stroke-dasharray:none;stroke-opacity:1"
                   id="circle17"
                   cx="4.3574357"
                   cy="8.4713774"
                   r="0.3057923" />
              </g>
            </g>
          </g>
          <g
             data-name="Ebene 1-2"
             id="g23"
             style="display:inline;fill:#436eee;fill-opacity:1;stroke:none;stroke-opacity:1">
            <g
               id="g22"
               style="fill:#436eee;fill-opacity:1;stroke:none;stroke-opacity:1">
              <g
                 id="g21"
                 transform="matrix(1.0692048,0,0,1.0692048,-0.60316622,-0.13901553)"
                 style="fill:#436eee;fill-opacity:1;stroke:none;stroke-opacity:1">
                <path
                   style="fill:#436eee;fill-opacity:1;stroke:none;stroke-width:1.00659;stroke-opacity:1"
                   inkscape:connector-curvature="0"
                   id="path19"
                   d="m 14.838512,15.868873 -8.4136356,-5.3e-5 c -0.049475,0 2.8135476,-2.467751 3.8228526,-3.317641 0.197905,-0.163833 0.621598,-0.167486 0.829396,-0.0037 z"
                   class="cls-1"
                   sodipodi:nodetypes="csccc" />
              </g>
            </g>
          </g>
        </g>
      </a>
      <path
         style="display:inline;fill:#436eee;fill-opacity:1;stroke:#436eee;stroke-width:0.831045;stroke-linecap:round;stroke-miterlimit:10;stroke-dasharray:none;stroke-opacity:1"
         inkscape:connector-curvature="0"
         id="path24"
         d="m 273.36554,-98.190887 c -0.003,0.67104 -0.0684,3.16738 0.0261,4.64074 0.0847,1.33927 0.21309,2.37598 0.82527,3.01947 1.57972,1.66052 3.73279,1.6972 7.00481,1.80283 0.29975,0.005 0.23328,-0.40661 -0.0261,-0.41443 -0.89701,-0.026 -2.91735,-0.14272 -3.51873,-0.303 -1.38547,-0.36882 -2.03793,-0.71025 -2.64986,-1.49352 -0.43984,-0.56233 -0.7566,-1.30798 -0.79074,-2.6101 -0.0456,-1.63902 -0.013,-4.07404 -0.013,-4.68675 0.002,-0.75601 0.0195,-3.680923 0.013,-3.961833 -0.005,-0.31799 0.0586,-1.08918 -0.13032,-1.0923 -0.13358,-0.002 -0.4444,-0.005 -0.62425,-8.4e-4 -0.15899,0.004 -0.10491,0.74206 -0.10491,1.07341 -0.002,1.34214 -0.006,3.355303 -0.013,4.026333 z"
         class="cls-2"
         sodipodi:nodetypes="zsssssssssssszz" />
      <path
         style="display:inline;fill:#436eee;fill-opacity:1;stroke:#436eee;stroke-width:0.831045;stroke-linecap:round;stroke-miterlimit:10;stroke-dasharray:none;stroke-opacity:1"
         inkscape:connector-curvature="0"
         id="path25"
         d="m 288.91264,-79.697107 c 0.002,-0.6711 0.0684,-3.16744 -0.0261,-4.64073 -0.0847,-1.33934 -0.21308,-2.37599 -0.82526,-3.01954 -0.70923,-0.74545 -1.55079,-1.18496 -2.55968,-1.40773 -1.96625,-0.434 -2.68798,-0.32322 -4.43164,-0.38187 -0.3004,-0.0131 -0.24566,0.37404 0.0131,0.40076 0.5265,0.0586 2.91727,0.1427 3.51872,0.303 1.38547,0.36881 2.03786,0.71031 2.64986,1.49355 0.43918,0.56235 0.75659,1.30794 0.79074,2.61005 0.0456,1.63908 0.013,4.07405 0.013,4.68676 -0.002,0.75608 -0.0195,3.68092 -0.013,3.96189 0.005,0.31799 -0.0965,0.57734 0.0899,0.58059 0.13358,0.002 0.55322,0.003 0.75228,8.4e-4 0.0456,-5.3e-4 0.0195,-0.3245 0.0195,-0.56169 -0.001,-1.34214 0.006,-3.35531 0.013,-4.02634 z"
         class="cls-2"
         sodipodi:nodetypes="zssssssssssssszz" />
      <path
         style="display:inline;fill:#436eee;fill-opacity:1;stroke:#436eee;stroke-width:0;stroke-linecap:round;stroke-miterlimit:10;stroke-dasharray:none;stroke-opacity:1"
         inkscape:connector-curvature="0"
         id="path26"
         d="m 289.3287,-98.261057 c 0.003,0.65487 0.0684,3.09106 -0.0261,4.52885 -0.0847,1.30701 -0.21308,2.31872 -0.82527,2.94669 -1.57971,1.62043 -3.84055,1.65568 -7.0048,1.75936 -0.27433,0.005 -0.24175,-0.32711 -0.0391,-0.39357 0.0195,-0.005 0.0391,-0.005 0.0586,-0.0131 0.46589,-0.0325 2.49979,-0.11272 3.51872,-0.29583 1.40878,-0.25283 2.03785,-0.69311 2.64985,-1.45753 0.43919,-0.54866 0.75659,-1.27638 0.79074,-2.5471 0.0456,-1.59953 0.013,-3.97577 0.013,-4.57376 -0.002,-0.73783 -0.0195,-3.592173 -0.013,-3.866303 0.005,-0.31017 0.0325,-1.24413 0.0391,-1.36345 7.2e-4,-0.0814 0.11012,-0.16746 0.19745,-0.17007 0.0945,-0.003 0.30039,1.9e-4 0.39618,-0.004 0.0926,-0.004 0.2222,0.0821 0.22545,0.16616 0.004,0.1023 0.004,1.02825 0.004,1.35152 0.002,1.30981 0.006,3.274433 0.013,3.929313 z"
         class="cls-2"
         sodipodi:nodetypes="zssssssssssssssszz" />
      <path
         style="display:inline;fill:#00aa00;fill-opacity:1;stroke:#436eee;stroke-width:0;stroke-linecap:round;stroke-linejoin:round;stroke-miterlimit:7.5;stroke-dasharray:none;stroke-opacity:1"
         d="m 276.09419,-85.119207 2.34296,-0.20981"
         id="path27" />
      <path
         style="display:inline;fill:#436eee;fill-opacity:1;stroke:#436eee;stroke-width:0;stroke-linecap:round;stroke-miterlimit:10;stroke-dasharray:none;stroke-opacity:1"
         inkscape:connector-curvature="0"
         id="path28"
         d="m 272.94942,-80.009877 c -0.003,-0.63923 -0.0684,-3.01731 0.0261,-4.42082 0.0847,-1.27586 0.21307,-2.26339 0.82521,-2.87637 1.57971,-1.58187 3.84055,-1.6168 7.00487,-1.7174 0.29975,-0.005 1.35823,0.29844 -0.0261,0.39488 -0.90849,0.0652 -2.07546,0.0691 -3.51873,0.28866 -1.41296,0.21505 -2.03787,0.67665 -2.64986,1.42281 -0.43919,0.53563 -0.7566,1.24596 -0.79074,2.48638 -0.0456,1.56139 -0.013,3.88095 -0.013,4.46467 0.002,0.72017 0.0195,3.50648 0.013,3.77411 -0.005,0.303 -0.0326,1.21442 -0.0391,1.33086 -6.4e-4,0.0795 -0.11077,0.16354 -0.19743,0.16616 -0.0945,0.003 -0.3004,-2e-4 -0.39619,0.003 -0.0926,0.003 -0.22219,-0.0803 -0.22546,-0.16226 -0.004,-0.0997 -0.004,-1.00368 -0.004,-1.31934 -0.002,-1.27845 -0.006,-3.19622 -0.013,-3.83553 z"
         class="cls-2"
         sodipodi:nodetypes="zsssssssssssssszz" />
      <path
         style="display:inline;fill:#436eee;fill-opacity:1;stroke:#436eee;stroke-width:0.337038px;stroke-linecap:round;stroke-miterlimit:10;stroke-opacity:1"
         inkscape:connector-curvature="0"
         id="path29"
         d="m 285.89203,-102.20699 c -0.24892,0 -11.89357,0.013 -11.89357,0.013 -0.27498,0 -0.42941,0.11664 -0.42941,0.25414 0,0.13749 0.18897,0.25412 0.42941,0.25412 h 11.89728 c 0.23328,0 0.49066,0.0195 0.48871,-0.0854 -0.002,-0.088 -0.006,-0.24631 -0.006,-0.35057 2.5e-4,-0.11403 -0.36696,-0.0854 -0.48675,-0.0854 -0.11979,0 3.3e-4,1.1e-4 3.3e-4,1.1e-4 z"
         class="cls-2"
         sodipodi:nodetypes="zsssssszz" />
      <path
         id="path30"
         style="display:inline;fill:#436eee;fill-opacity:1;stroke:#436eee;stroke-width:0.337038px;stroke-linecap:round;stroke-miterlimit:10;stroke-opacity:1"
         class="cls-2"
         d="m 278.52212,-91.618297 c -0.0586,8.4e-4 -0.11925,0.003 -0.18181,0.003 -0.0918,0 -2.34835,8.4e-4 -4.38088,0.003 v 0.51869 c 2.03487,0 4.29773,0 4.38427,0 0.23328,0 0.49002,0.0195 0.48806,-0.0873 -0.002,-0.0879 -0.006,-0.24631 -0.006,-0.35058 1.3e-4,-0.0854 -0.13097,-0.0898 -0.303,-0.0873 z" />
      <path
         id="path31"
         style="display:inline;fill:#436eee;fill-opacity:1;stroke:#436eee;stroke-width:0.337038px;stroke-linecap:round;stroke-miterlimit:10;stroke-opacity:1"
         class="cls-2"
         d="m 280.04417,-93.736307 c -0.0586,8.4e-4 -0.11926,0.003 -0.18181,0.003 -0.13554,0 -3.29001,0.003 -6.45517,0.005 v 0.51543 c 3.169,0 6.3311,0 6.45849,0 0.23329,0 0.49002,0.0195 0.48806,-0.0873 -0.002,-0.088 -0.004,-0.24631 -0.003,-0.34993 1.3e-4,-0.0854 -0.13423,-0.0898 -0.30626,-0.0873 z" />
      <path
         id="path32"
         style="display:inline;fill:#436eee;fill-opacity:1;stroke:#436eee;stroke-width:0.337038px;stroke-linecap:round;stroke-miterlimit:10;stroke-opacity:1"
         class="cls-2"
         d="m 281.5494,-95.854377 c -0.0586,8.3e-4 -0.11925,0.003 -0.18181,0.003 -0.17072,0 -4.68994,0.006 -8.14891,0.013 v 0.50827 c 3.46334,0 7.99149,0 8.15231,0 0.23327,6e-5 0.49001,0.0196 0.48805,-0.084 -0.002,-0.0879 -0.004,-0.24631 -0.003,-0.34992 1.3e-4,-0.0854 -0.13424,-0.0899 -0.30627,-0.0874 z" />
      <path
         id="path33"
         style="display:inline;fill:#436eee;fill-opacity:1;stroke:#436eee;stroke-width:0.337038px;stroke-linecap:round;stroke-miterlimit:10;stroke-opacity:1"
         class="cls-2"
         d="m 283.06466,-97.972387 c -0.0586,8.3e-4 -0.11924,0.003 -0.1818,0.003 -0.20135,0 -6.70656,0.006 -9.62379,0.0131 v 0.50825 c 2.92087,0 9.4373,0 9.62718,0 0.23328,0 0.49002,0.0195 0.48806,-0.0841 -0.002,-0.088 -0.006,-0.24632 -0.006,-0.34992 1.9e-4,-0.0854 -0.13097,-0.0899 -0.303,-0.0873 z" />
      <path
         id="path34"
         style="display:inline;fill:#436eee;fill-opacity:1;stroke:#436eee;stroke-width:0.337038px;stroke-linecap:round;stroke-miterlimit:10;stroke-opacity:1"
         class="cls-2"
         d="m 284.39813,-100.09047 c -0.23393,0 -9.9436,0.013 -11.17952,0.013 v 0.508263 c 1.23749,0 10.96227,0 11.18291,0 0.23328,0 0.49002,0.0195 0.48806,-0.0841 -0.002,-0.088 -0.006,-0.24631 -0.006,-0.349923 2.6e-4,-0.11403 -0.23588,-0.0873 -0.4848,-0.0873 z" />
      <circle
         style="display:inline;fill:none;stroke:#436eee;stroke-width:2;stroke-linecap:round;stroke-miterlimit:7.5;stroke-dasharray:none;stroke-opacity:1"
         id="circle34"
         cx="-304.72391"
         cy="51.957893"
         r="7.3128581"
         transform="rotate(178.28143)" />
      <ellipse
         style="display:inline;fill:none;stroke:#436eee;stroke-width:2.02296;stroke-linecap:round;stroke-miterlimit:7.5;stroke-dasharray:none;stroke-opacity:1"
         id="ellipse34"
         cx="-316.57416"
         cy="95.260963"
         rx="7.7032409"
         ry="2.4969735"
         transform="matrix(-0.99771276,-0.06759624,-0.14471565,-0.98947328,0,0)" />
      <ellipse
         style="display:inline;fill:none;stroke:#436eee;stroke-width:2.02296;stroke-linecap:round;stroke-miterlimit:7.5;stroke-dasharray:none;stroke-opacity:1"
         id="ellipse35"
         cx="45.863724"
         cy="-303.83347"
         rx="7.7032409"
         ry="2.4969735"
         transform="matrix(0.147346,0.98908501,-0.93562957,0.35298343,0,0)" />
      <circle
         style="display:inline;fill:none;stroke:#436eee;stroke-width:2;stroke-linecap:round;stroke-miterlimit:7.5;stroke-dasharray:none;stroke-opacity:1"
         id="circle35"
         cx="-211.72536"
         cy="-251.6404"
         r="7.3128581"
         transform="matrix(-0.84027903,-0.54215417,-0.54215417,0.84027903,0,0)" />
      <ellipse
         style="display:inline;fill:none;stroke:#436eee;stroke-width:2.02296;stroke-linecap:round;stroke-miterlimit:7.5;stroke-dasharray:none;stroke-opacity:1"
         id="ellipse36"
         cx="-186.24884"
         cy="-222.47574"
         rx="7.7032404"
         ry="2.4969735"
         transform="matrix(-0.8891298,-0.45765512,-0.63517073,0.77237177,0,0)" />
      <ellipse
         style="display:inline;fill:none;stroke:#436eee;stroke-width:2.02296;stroke-linecap:round;stroke-miterlimit:7.5;stroke-dasharray:none;stroke-opacity:1"
         id="ellipse37"
         cx="308.83099"
         cy="-172.90773"
         rx="7.7032409"
         ry="2.4969735"
         transform="matrix(0.6372221,-0.77068022,-0.61865885,-0.78565974,0,0)" />
      <circle
         style="display:inline;fill:none;stroke:#436eee;stroke-width:2;stroke-linecap:round;stroke-miterlimit:7.5;stroke-dasharray:none;stroke-opacity:1"
         id="circle37"
         cx="264.83768"
         cy="-16.515598"
         r="7.3128581"
         transform="matrix(0.96545018,-0.26058771,-0.26058771,-0.96545018,0,0)" />
      <ellipse
         style="display:inline;fill:none;stroke:#436eee;stroke-width:2.02296;stroke-linecap:round;stroke-miterlimit:7.5;stroke-dasharray:none;stroke-opacity:1"
         id="ellipse38"
         cx="269.97266"
         cy="-31.139448"
         rx="7.7032404"
         ry="2.4969735"
         transform="matrix(0.93544746,-0.35346576,-0.14785593,-0.98900891,0,0)" />
      <ellipse
         style="display:inline;fill:none;stroke:#436eee;stroke-width:2.02296;stroke-linecap:round;stroke-miterlimit:7.5;stroke-dasharray:none;stroke-opacity:1"
         id="ellipse39"
         cx="-77.587433"
         cy="283.45901"
         rx="7.7032404"
         ry="2.4969735"
         transform="matrix(0.14522577,0.98939854,0.99774748,0.06708184,0,0)" />
      <circle
         style="display:inline;fill:none;stroke:#436eee;stroke-width:2;stroke-linecap:round;stroke-miterlimit:7.5;stroke-dasharray:none;stroke-opacity:1"
         id="circle39"
         cx="-316.62936"
         cy="-9.9987688"
         r="7.3128581"
         transform="matrix(-0.93014114,0.36720221,0.36720221,0.93014114,0,0)" />
      <ellipse
         style="display:inline;fill:none;stroke:#436eee;stroke-width:2.02296;stroke-linecap:round;stroke-miterlimit:7.5;stroke-dasharray:none;stroke-opacity:1"
         id="ellipse40"
         cx="-321.28973"
         cy="33.846771"
         rx="7.7032409"
         ry="2.4969735"
         transform="matrix(-0.88991304,0.45613022,0.25782306,0.96619215,0,0)" />
      <ellipse
         style="display:inline;fill:none;stroke:#436eee;stroke-width:2.02296;stroke-linecap:round;stroke-miterlimit:7.5;stroke-dasharray:none;stroke-opacity:1"
         id="ellipse41"
         cx="109.77092"
         cy="-308.47388"
         rx="7.7032409"
         ry="2.4969735"
         transform="matrix(-0.25525318,-0.96687425,-0.99897702,0.04522071,0,0)" />
      <circle
         style="display:inline;fill:none;stroke:#436eee;stroke-width:2;stroke-linecap:round;stroke-miterlimit:7.5;stroke-dasharray:none;stroke-opacity:1"
         id="circle41"
         cx="120.19713"
         cy="220.5965"
         r="7.3128581"
         transform="matrix(0.74544959,0.66656201,0.66656201,-0.74544959,0,0)" />
      <ellipse
         style="display:inline;fill:none;stroke:#436eee;stroke-width:2.02296;stroke-linecap:round;stroke-miterlimit:7.5;stroke-dasharray:none;stroke-opacity:1"
         id="ellipse42"
         cx="95.305786"
         cy="224.94591"
         rx="7.7032409"
         ry="2.4969735"
         transform="matrix(0.80688027,0.59071502,0.7478504,-0.6638673,0,0)" />
      <ellipse
         style="display:inline;fill:none;stroke:#436eee;stroke-width:2.02296;stroke-linecap:round;stroke-miterlimit:7.5;stroke-dasharray:none;stroke-opacity:1"
         id="ellipse43"
         cx="-258.85458"
         cy="107.85656"
         rx="7.7032409"
         ry="2.4969735"
         transform="matrix(-0.74961287,0.66187654,0.48856636,0.87252674,0,0)" />
      <path
         id="path43"
         style="display:inline;fill:none;stroke:#436eee;stroke-width:1.78889;stroke-linecap:round;stroke-miterlimit:7.5;stroke-dasharray:none;stroke-opacity:1"
         d="m 250.80783,-130.05471 c -2.39965,-0.004 -4.63675,1.21216 -5.93764,3.22859 -0.89438,1.39113 -1.21141,2.94847 -1.0645,4.69336 0.14692,1.74489 0.84507,2.50174 0.85285,3.72351 0.005,0.76541 -0.60079,1.98955 -0.85566,2.71703 -0.16161,0.46128 0.39361,0.88237 0.88237,0.88237 h 12.17066 c 0.48877,0 1.26373,-0.39361 0.8819,-0.88237 0,0 -1.1109,-1.5692 -1.11706,-2.64958 -0.006,-1.08038 0.71292,-2.3033 0.86253,-3.47794 0.0963,-0.75622 0.0698,-3.01642 -0.5553,-4.57225 -0.54691,-1.36127 -1.48885,-2.00627 -2.31013,-2.5363 -1.75996,-1.13583 -3.13419,-1.12517 -3.81006,-1.12642 -0.67588,-0.001 4e-5,0 4e-5,0 z"
         sodipodi:nodetypes="cczssccczssszc" />
      <path
         id="path44"
         style="display:inline;fill:none;stroke:#436eee;stroke-width:1.57645;stroke-linecap:round;stroke-miterlimit:7.5;stroke-dasharray:none;stroke-opacity:1"
         d="m 246.83632,-111.45003 c -0.48124,8.7e-4 -0.92988,-0.2431 -1.19077,-0.64749 -0.17937,-0.27898 -0.20352,-0.6036 -0.21348,-0.94123 -1.6e-4,-0.004 -5.6e-4,-0.007 -5.6e-4,-0.0106 v -1.28106 c 0,-0.098 0.0789,-0.17696 0.17695,-0.17696 h 2.44079 c 0.098,0 0.17686,0.0789 0.17686,0.17696 v 1.22034 c -0.008,0.57323 -0.14757,1.12551 -0.6257,1.43411 -0.22779,0.14698 -0.49301,0.22539 -0.7641,0.2259 z"
         sodipodi:nodetypes="ccccscccccc" />
      <path
         id="path45"
         style="display:inline;fill:none;stroke:#436eee;stroke-width:1.57645;stroke-linecap:round;stroke-miterlimit:7.5;stroke-dasharray:none;stroke-opacity:1"
         d="m 250.83818,-111.45003 c -0.48124,8.7e-4 -0.92988,-0.2431 -1.19077,-0.64749 -0.17936,-0.27898 -0.20352,-0.6036 -0.21349,-0.94123 -1.5e-4,-0.004 -5.5e-4,-0.007 -5.6e-4,-0.0106 v -1.28106 c 0,-0.098 0.0789,-0.17696 0.17696,-0.17696 h 2.44078 c 0.098,0 0.17687,0.0789 0.17687,0.17696 v 1.22034 c -0.008,0.57323 -0.14758,1.12551 -0.62571,1.43411 -0.22778,0.14698 -0.493,0.22539 -0.76409,0.2259 z"
         sodipodi:nodetypes="ccccscccccc" />
      <path
         id="path49"
         style="display:inline;fill:none;stroke:#436eee;stroke-width:1.57645;stroke-linecap:round;stroke-miterlimit:7.5;stroke-dasharray:none;stroke-opacity:1"
         d="m 254.84005,-111.45003 c -0.48125,8.7e-4 -0.92989,-0.2431 -1.19078,-0.64749 -0.17937,-0.27898 -0.20352,-0.6036 -0.21348,-0.94123 -1.6e-4,-0.004 -5.5e-4,-0.007 -5.6e-4,-0.0106 v -1.28106 c 0,-0.098 0.0789,-0.17696 0.17696,-0.17696 h 2.44078 c 0.098,0 0.17686,0.0789 0.17686,0.17696 v 1.22034 c -0.008,0.57323 -0.14757,1.12551 -0.6257,1.43411 -0.22778,0.14698 -0.493,0.22539 -0.76409,0.2259 z"
         sodipodi:nodetypes="ccccscccccc" />
      <circle
         style="display:inline;fill:none;stroke:#436eee;stroke-width:1.57645;stroke-linecap:round;stroke-miterlimit:7.5;stroke-dasharray:none;stroke-opacity:1"
         id="circle49"
         cx="248.12039"
         cy="-123.34354"
         r="1.7369202" />
      <circle
         style="display:inline;fill:none;stroke:#436eee;stroke-width:1.57645;stroke-linecap:round;stroke-miterlimit:7.5;stroke-dasharray:none;stroke-opacity:1"
         id="circle50"
         cx="253.20709"
         cy="-123.34354"
         r="1.7369202" />
      <path
         style="display:inline;fill:none;stroke:#436eee;stroke-width:1.69546;stroke-linecap:round;stroke-miterlimit:7.5;stroke-dasharray:none;stroke-opacity:1"
         d="m 249.42508,-117.60207 1.2907,-1.96484"
         id="path50" />
      <path
         style="display:inline;fill:none;stroke:#436eee;stroke-width:1.66265;stroke-linecap:round;stroke-miterlimit:7.5;stroke-dasharray:none;stroke-opacity:1"
         d="m 250.85145,-119.58331 1.14653,1.99429"
         id="path51" />
      <circle
         style="display:inline;fill:#436eee;fill-opacity:1;stroke:#436eee;stroke-width:1.57645;stroke-linecap:round;stroke-miterlimit:7.5;stroke-dasharray:none;stroke-opacity:1"
         id="circle51"
         cx="248.12039"
         cy="-123.34354"
         r="1.7369202" />
      <circle
         style="display:inline;fill:#436eee;fill-opacity:1;stroke:#436eee;stroke-width:1.57645;stroke-linecap:round;stroke-miterlimit:7.5;stroke-dasharray:none;stroke-opacity:1"
         id="circle52"
         cx="253.20709"
         cy="-123.34354"
         r="1.7369202" />
      <path
         style="display:inline;fill:none;stroke:#436eee;stroke-width:1.69546;stroke-linecap:round;stroke-miterlimit:7.5;stroke-dasharray:none;stroke-opacity:1"
         d="m 249.42508,-117.60207 1.2907,-1.96484"
         id="path52" />
      <path
         style="display:inline;fill:none;stroke:#436eee;stroke-width:1.66265;stroke-linecap:round;stroke-miterlimit:7.5;stroke-dasharray:none;stroke-opacity:1"
         d="m 250.85145,-119.58331 1.14653,1.99429"
         id="path53" />
    </g>
  </g>
</svg>
